<svg xmlns="http://www.w3.org/2000/svg" xml:space="preserve" width="113.39" height="113.39" viewBox="0 0 113.39 113.39"><g fill-rule="evenodd" clip-rule="evenodd"><path fill="#fefefe" d="M.189 106.964C.189 71.656.191 36.348.171 1.04c0-.708.16-.869.868-.868q55.844.03 111.688 0c.708 0 .87.159.869.868-.024 14.331-.018 28.662-.018 42.994-.319-.048-.518.193-.752.33-9.684 5.625-19.36 11.264-29.056 16.87-.726.421-.833.745-.412 1.474 1.9 3.288 3.747 6.606 5.606 9.917.167.297.493.574-.067.892-2.279 1.288-4.535 2.619-6.829 3.951-2.005-3.567-3.994-7.08-5.95-10.61-.333-.603-.647-.725-1.311-.47-2.17.833-4.312 1.734-6.47 2.596-6.006 2.396-12.081 4.613-18.04 7.135-10.894 4.609-21.626 9.533-31.699 15.782-4.498 2.79-8.75 5.915-12.709 9.438-1.999 1.775-3.809 3.74-5.7 5.625M70.36 13.992l.171.082v15.112c0 1.498.438 2.177 1.38 2.147.92-.029 1.313-.658 1.313-2.115V11.176c0-.221.013-.442-.008-.661-.113-1.159-.911-1.664-1.967-1.2-.328.144-.588.105-.899.03-4.298-1.046-8.62-2.006-12.887-3.167-1.458-.397-2.612-.211-3.929.42C39.281 13.424 25 20.2 10.728 26.992c-1.475.702-2.008 1.741-1.748 3.359.035.217.057.436.097.652.48 2.552 1.511 4.845 3.248 6.792.778.871 1.689 1.12 2.883.791a19515 19515 0 0 1 46.815-12.852c.622-.17 1.07-.504 1.387-1.039 1.826-3.082 3.902-6.002 5.828-9.02.363-.569.748-1.123 1.122-1.683m1.741 31.39c-2.169.096-4.308.438-6.434.831-12.397 2.295-24.376 5.952-35.89 11.106-1.004.45-1.989.942-2.976 1.43-.403.199-.836.453-.594.997.271.607.755.404 1.203.197q.13-.057.257-.118c6.724-3.317 13.731-5.905 20.901-8.063 6.765-2.036 13.599-3.785 20.616-4.722 1.118-.149 2.246-.224 3.37-.315.462-.037.837-.184.802-.707-.033-.507-.421-.649-.879-.638q-.186.004-.376.002m2.414 5.037c-2.009.165-3.963.629-5.907 1.124-7.991 2.034-15.731 4.79-23.236 8.2-1.373.624-2.693 1.362-4.032 2.059-.394.205-.697.518-.44.982.242.438.654.418 1.065.207l.839-.429c9.278-4.728 19.03-8.126 29.184-10.4q1.424-.32 2.88-.428c.478-.035 1.016-.135.94-.789-.066-.576-.542-.607-1.013-.554q-.14.016-.28.028m-56.72 9.225c1.222-.706 2.334-1.351 3.449-1.993.424-.245.902-.539.61-1.087-.327-.614-.844-.334-1.3-.072-1.105.637-2.213 1.271-3.444 1.976v-1.066c0-.944.009-1.89-.004-2.834-.007-.495.063-1.129-.649-1.144-.696-.015-.702.583-.706 1.103q-.002.378 0 .756v3.183c-1.322-.762-2.481-1.44-3.652-2.099-.383-.215-.818-.292-1.071.167-.212.385-.034.727.34.951q.282.17.567.336l3.122 1.815c-.396.242-.685.426-.981.599-.895.521-1.796 1.033-2.688 1.561-.36.212-.588.547-.367.943.241.434.646.441 1.06.195.27-.16.544-.313.817-.468l2.854-1.625c0 1.469-.006 2.756.002 4.043.003.496.097 1.022.719.996.55-.022.642-.505.639-.982-.006-.977-.002-1.952-.001-2.929.001-1.153.001-1.15.967-.596.925.53 1.855 1.055 2.781 1.586.389.223.757.188.983-.194.236-.396.017-.722-.325-.957-.206-.142-.429-.261-.646-.387zM88.858 43.28c-.208-.391-.113-.739-.118-1.072-.016-1.039.002-2.079-.017-3.118-.007-.399-.144-.784-.623-.797-.519-.014-.69.363-.718.815-.018.282-.005.566-.005.85v3.391c-1.228-.709-2.304-1.339-3.39-1.954-.437-.248-.966-.593-1.315.011-.34.588.171.887.628 1.149 1.106.632 2.206 1.277 3.385 1.962-.383.234-.673.417-.969.59-.895.521-1.797 1.032-2.687 1.562-.388.231-.631.572-.339 1.013.252.38.625.361.999.141.271-.16.548-.309.82-.464l2.869-1.642c0 1.373-.005 2.562.002 3.751.003.557-.084 1.29.704 1.285.73-.005.652-.705.653-1.238.002-1.04.017-2.08-.007-3.118-.014-.588.165-.638.638-.348a80 80 0 0 0 2.689 1.558c.451.253.994.71 1.389.049.387-.648-.226-.922-.691-1.192-1.083-.629-2.164-1.262-3.326-1.94l3.424-1.982c.448-.26.961-.554.586-1.155-.336-.539-.818-.262-1.242-.018-1.108.634-2.218 1.268-3.339 1.911M32.655 71.17c-1.305.76-2.471 1.437-3.634 2.117-.389.228-.666.555-.41 1.001.252.438.664.399 1.068.164.949-.553 1.913-1.084 2.847-1.661.582-.359.864-.401.814.438-.055.91-.025 1.826-.008 2.739.01.572-.166 1.397.653 1.426.86.03.684-.801.698-1.373.017-.661.003-1.323.003-1.984v-1.671c.51.28.836.453 1.158.636q1.309.746 2.616 1.496c.396.228.755.156.975-.225.205-.355.013-.676-.283-.9-.223-.17-.483-.292-.728-.434l-3.049-1.767c1.214-.705 2.297-1.338 3.385-1.964.449-.258.988-.544.658-1.141-.334-.604-.862-.293-1.311-.035l-3.42 1.967c0-1.479.007-2.8-.005-4.12-.003-.34-.015-.7-.403-.885a.59.59 0 0 0-.625.059c-.318.228-.328.584-.327.936v3.997c-1.217-.697-2.322-1.334-3.43-1.963-.445-.253-.965-.561-1.295.067-.287.547.172.842.604 1.089 1.116.636 2.227 1.285 3.449 1.991m-19.891 2.039v-1.052c0-1.04.01-2.079-.006-3.118-.006-.426-.098-.874-.635-.884-.577-.012-.704.431-.718.91-.008.283-.001.567-.001.851V73.2l-3.151-1.799c-.218-.124-.434-.254-.66-.36-.356-.169-.718-.138-.905.22-.231.44-.005.777.398 1.011l3.627 2.104c-.386.235-.676.419-.972.592-.895.522-1.795 1.035-2.688 1.561-.359.212-.598.536-.385.938.232.436.632.463 1.051.214.27-.16.546-.31.819-.466l2.866-1.638c0 1.403-.003 2.625.001 3.846.002.539-.025 1.201.708 1.192.67-.008.653-.634.651-1.15-.003-1.071.017-2.143-.008-3.213-.013-.6.175-.626.64-.344.912.555 1.847 1.07 2.772 1.603.44.253.946.608 1.31.003.359-.598-.172-.896-.613-1.154-1.108-.646-2.222-1.285-3.415-1.975 1.208-.699 2.32-1.345 3.434-1.986.423-.243.909-.527.629-1.081-.315-.622-.832-.356-1.291-.092-1.106.639-2.216 1.271-3.458 1.983"/><path fill="#99caee" d="M113.579 60.663v21.733c-.144.057-.297.097-.43.174a50648 50648 0 0 0-52.391 30.497c-.17.099-.607.081-.472.512H22.867c.125-.336.472-.393.727-.541 10.573-6.164 21.152-12.315 31.729-18.473 11.823-6.883 23.642-13.771 35.465-20.653 7.594-4.42 15.193-8.833 22.791-13.249"/><path fill="#6085a2" d="M20.599 113.579c-6.429 0-12.857-.027-19.286.028-.975.009-1.333-.206-1.124-1.163.868-.353 1.05-1.277 1.588-1.906 3.051-3.56 6.228-6.993 9.855-9.984 5.186-4.276 10.81-7.914 16.7-11.11 7.521-4.081 15.23-7.794 23.161-11.031 2.966-1.21 5.846-2.657 8.867-3.701 4.967-1.717 9.741-3.903 14.633-5.797.73-.283.897-.058 1.167.428a5860 5860 0 0 0 4.066 7.312c.82 1.472.82 1.468-.621 2.225-.334.175-.654.376-.98.567-4.789 2.813-9.571 5.637-14.369 8.436-14.195 8.278-28.398 16.544-42.588 24.833-.384.222-.953.283-1.069.863m35.15-32.689c-1.184 2.052-2.304 4-3.432 5.944-.208.359-.33.666.274.668 2.285.005 4.569.002 6.996.002-.323-.575-.539-1.058-.844-1.475-.417-.571-.319-.85.314-1.206 3.625-2.046 7.222-4.142 10.824-6.228 1.353-.783 1.323-.778.542-2.176-.317-.567-.547-.753-1.201-.366-3.34 1.978-6.712 3.9-10.077 5.835-.648.373-1.361 1.062-1.961.981-.711-.095-.828-1.202-1.287-1.813-.019-.023-.041-.044-.148-.166"/><path fill="#818181" d="M113.579 86.932c0 8.631-.009 17.261.019 25.891.002.647-.127.775-.774.774-14.993-.023-29.985-.018-44.978-.018.177-.125.346-.263.533-.371q13.717-7.99 27.438-15.972c5.916-3.44 11.841-6.87 17.762-10.304"/><path fill="#242124" d="M20.599 113.579c.116-.58.685-.641 1.069-.865 14.19-8.289 28.393-16.555 42.588-24.833 4.798-2.799 9.58-5.623 14.369-8.436.326-.191.646-.393.98-.567 1.44-.757 1.44-.753.621-2.225q-2.035-3.654-4.066-7.312c-.27-.485-.436-.711-1.167-.428-4.892 1.894-9.666 4.08-14.633 5.797-3.021 1.044-5.901 2.491-8.867 3.701-7.931 3.237-15.639 6.95-23.161 11.031-5.89 3.196-11.514 6.834-16.7 11.11-3.627 2.991-6.804 6.425-9.855 9.984-.539.629-.721 1.554-1.588 1.906v-5.48c1.891-1.885 3.701-3.85 5.7-5.628 3.959-3.522 8.211-6.647 12.709-9.438 10.073-6.249 20.805-11.173 31.699-15.782 5.959-2.521 12.034-4.739 18.04-7.135 2.158-.861 4.3-1.763 6.47-2.596.663-.255.977-.133 1.311.47 1.956 3.53 3.945 7.043 5.95 10.61 2.294-1.332 4.55-2.663 6.829-3.951.561-.317.234-.595.067-.892-1.86-3.311-3.707-6.629-5.606-9.917-.421-.729-.314-1.053.412-1.474 9.695-5.605 19.372-11.244 29.056-16.87.235-.137.434-.377.752-.33v3.023c-.062.009-.134.001-.185.03-9.186 5.343-18.368 10.693-27.561 16.025-.507.294-.442.531-.199.959a532 532 0 0 1 4.399 7.887c.32.586.583.619 1.141.287 2.612-1.556 5.255-3.06 7.881-4.593 4.844-2.829 9.683-5.666 14.524-8.5v1.512c-7.597 4.416-15.197 8.829-22.792 13.249-11.824 6.882-23.643 13.771-35.465 20.653-10.577 6.157-21.156 12.309-31.729 18.473-.255.148-.602.205-.727.541q-1.131.005-2.266.004"/><path fill="#6085a2" d="M113.579 59.151c-4.841 2.834-9.681 5.671-14.524 8.5-2.625 1.533-5.269 3.037-7.881 4.593-.557.332-.821.299-1.141-.287a523 523 0 0 0-4.399-7.887c-.243-.428-.308-.665.199-.959 9.193-5.332 18.375-10.682 27.561-16.025.05-.029.123-.021.185-.03z"/><path fill="#242124" d="M113.579 86.932c-5.921 3.435-11.845 6.864-17.763 10.305-9.149 5.319-18.293 10.646-27.438 15.972-.187.108-.355.246-.533.371h-7.559c-.135-.431.302-.413.472-.512a51723 51723 0 0 1 52.391-30.497c.132-.077.286-.117.43-.174zM70.36 13.992c-.374.561-.759 1.114-1.122 1.682-1.926 3.018-4.002 5.938-5.828 9.02-.317.535-.765.869-1.387 1.039a19994 19994 0 0 0-46.815 12.852c-1.194.33-2.105.081-2.883-.791-1.737-1.946-2.768-4.24-3.248-6.792-.041-.216-.063-.436-.097-.652-.26-1.618.273-2.657 1.748-3.359C25 20.2 39.281 13.424 53.536 6.597c1.317-.631 2.471-.817 3.929-.42 4.267 1.161 8.588 2.121 12.887 3.167.311.076.571.114.899-.03 1.056-.464 1.854.041 1.967 1.2.021.219.008.44.008.661v18.042c0 1.457-.393 2.086-1.313 2.115-.942.029-1.38-.65-1.38-2.147V14.073zM19.829 24.184c-.063 0-.135-.022-.187.001-2.982 1.384-5.962 2.774-8.945 4.157-.315.146-.369.413-.365.702.047 3.13.861 5.945 3.304 8.105.268.236.52.341.846.25q4.7-1.308 9.398-2.621l8.608-2.313c.211-.048.425-.088.634-.147 3.153-.887 6.352-1.61 9.464-2.64l8.542-2.348c1.892-.263 3.682-.928 5.519-1.406 1.027-.268 2.084-.453 2.97-.854-4.508-4.715-6.559-10.286-6.496-16.74l-7.756 3.663c-2.706 1.275-5.454 2.463-8.09 3.882-3.18 1.354-6.279 2.881-9.386 4.39zm34.736-14.006c.37 4.61 1.846 8.813 4.667 12.513a5.9 5.9 0 0 0 1.595 1.46c.645.398 1.152.34 1.516-.418.413-.861.454-1.768.378-2.674-.35-4.221-1.751-8.077-4.171-11.549-.625-.898-1.308-1.753-2.39-2.197-.668-.274-1.001-.044-1.248.542-.313.743-.324 1.526-.347 2.323m9.554 10.855c2.122-3.231 4.13-6.301 6.153-9.361.405-.613.325-.918-.437-1.088-1.804-.403-3.593-.867-5.39-1.301-1.69-.408-3.383-.808-5.268-1.257 2.86 3.961 4.41 8.2 4.942 13.007M72.101 45.382q.189.001.377 0c.458-.011.846.131.879.638.035.523-.34.669-.802.707-1.125.091-2.252.166-3.37.315-7.017.938-13.851 2.687-20.616 4.722-7.17 2.158-14.177 4.745-20.901 8.063q-.128.061-.257.118c-.448.207-.932.41-1.203-.197-.242-.544.191-.798.594-.997.986-.487 1.971-.98 2.976-1.43 11.513-5.155 23.492-8.811 35.89-11.106 2.125-.396 4.264-.737 6.433-.833M74.515 50.419q.14-.013.28-.028c.47-.054.946-.022 1.013.554.076.654-.462.754-.94.789-.973.071-1.93.215-2.88.428-10.153 2.274-19.905 5.673-29.184 10.4q-.42.214-.839.429c-.411.211-.823.231-1.065-.207-.257-.465.046-.777.44-.982 1.339-.696 2.659-1.435 4.032-2.059 7.505-3.41 15.245-6.167 23.236-8.2 1.943-.495 3.898-.959 5.907-1.124M17.795 59.644c1.082.625 2.08 1.201 3.076 1.778.217.126.44.245.646.387.342.235.561.561.325.957-.227.382-.594.417-.983.194-.926-.531-1.856-1.056-2.781-1.586-.966-.555-.966-.558-.967.596-.001.977-.005 1.952.001 2.929.003.478-.089.96-.639.982-.623.026-.716-.5-.719-.996-.008-1.287-.002-2.574-.002-4.043l-2.854 1.625c-.273.155-.547.308-.817.468-.414.246-.819.238-1.06-.195-.221-.396.007-.731.367-.943.892-.527 1.793-1.039 2.688-1.561.296-.173.586-.356.981-.599l-3.122-1.815q-.285-.166-.567-.336c-.374-.225-.552-.566-.34-.951.252-.459.688-.382 1.071-.167 1.171.659 2.33 1.337 3.652 2.099v-3.183q-.002-.378 0-.756c.004-.52.01-1.118.706-1.103.713.015.643.649.649 1.144.013.944.004 1.89.004 2.834v1.066c1.231-.706 2.339-1.339 3.444-1.976.456-.262.973-.542 1.3.072.292.548-.186.842-.61 1.087-1.115.641-2.227 1.286-3.449 1.992M88.858 43.28c1.122-.643 2.231-1.276 3.338-1.914.424-.244.906-.521 1.242.018.375.601-.139.896-.586 1.155-1.111.645-2.223 1.287-3.424 1.982 1.162.678 2.243 1.311 3.326 1.94.465.27 1.078.544.691 1.192-.395.661-.938.204-1.389-.049a78 78 0 0 1-2.689-1.558c-.473-.29-.651-.24-.638.348.023 1.039.009 2.079.007 3.118-.001.533.077 1.233-.653 1.238-.789.005-.701-.728-.704-1.285-.007-1.189-.002-2.378-.002-3.751l-2.869 1.642c-.272.156-.549.305-.82.464-.374.22-.746.239-.999-.141-.292-.441-.049-.781.339-1.013.89-.53 1.792-1.041 2.687-1.562.296-.172.585-.356.969-.59-1.179-.685-2.278-1.331-3.385-1.962-.458-.262-.969-.561-.628-1.149.35-.604.879-.258 1.315-.011 1.085.615 2.162 1.245 3.39 1.954v-3.391c0-.283-.012-.567.005-.85.028-.452.199-.829.718-.815.479.013.616.398.623.797.02 1.039.001 2.079.017 3.118.006.336-.089.684.119 1.075M32.655 71.17c-1.222-.706-2.333-1.354-3.449-1.991-.432-.247-.891-.542-.604-1.089.33-.628.85-.32 1.295-.067 1.108.629 2.213 1.266 3.43 1.963v-3.997c0-.352.009-.708.327-.936a.59.59 0 0 1 .625-.059c.388.185.4.545.403.885.013 1.32.005 2.641.005 4.12l3.42-1.967c.449-.258.977-.569 1.311.035.331.597-.209.883-.658 1.141-1.087.626-2.171 1.259-3.385 1.964l3.049 1.767c.245.142.505.264.728.434.295.225.488.545.283.9-.219.381-.579.452-.975.225q-1.307-.75-2.616-1.496c-.321-.183-.648-.355-1.158-.636v1.671c0 .661.013 1.323-.003 1.984-.014.572.162 1.403-.698 1.373-.819-.028-.643-.854-.653-1.426-.017-.913-.046-1.829.008-2.739.05-.839-.232-.797-.814-.438-.934.577-1.897 1.108-2.847 1.661-.404.235-.816.274-1.068-.164-.256-.446.021-.773.41-1.001 1.163-.681 2.329-1.357 3.634-2.117M12.764 73.209c1.242-.712 2.352-1.344 3.458-1.983.459-.265.976-.53 1.291.092.28.554-.206.838-.629 1.081-1.114.642-2.225 1.287-3.434 1.986 1.193.689 2.307 1.328 3.415 1.975.441.258.973.557.613 1.154-.363.605-.869.25-1.31-.003-.925-.532-1.86-1.048-2.772-1.603-.464-.282-.653-.256-.64.344.024 1.07.004 2.142.008 3.213.002.517.019 1.143-.651 1.15-.733.009-.706-.653-.708-1.192-.004-1.221-.001-2.442-.001-3.846l-2.866 1.638c-.273.156-.549.306-.819.466-.419.249-.819.222-1.051-.214-.213-.402.026-.727.385-.938.893-.525 1.793-1.038 2.688-1.561.296-.173.585-.356.972-.592-1.261-.732-2.444-1.419-3.627-2.104-.403-.233-.629-.57-.398-1.011.188-.357.549-.389.905-.22.226.106.442.236.66.36l3.151 1.799v-3.284c0-.283-.006-.567.001-.851.014-.479.141-.922.718-.91.537.01.628.458.635.884.016 1.039.005 2.078.006 3.118zM55.749 80.89c.108.122.129.144.148.168.459.61.576 1.718 1.287 1.813.6.08 1.313-.608 1.961-.981 3.365-1.935 6.737-3.857 10.077-5.835.653-.387.883-.201 1.201.366.782 1.397.811 1.393-.542 2.176-3.602 2.086-7.199 4.182-10.824 6.228-.633.356-.731.635-.314 1.206.305.417.521.899.844 1.475-2.427 0-4.711.003-6.996-.002-.604-.002-.482-.309-.274-.668 1.127-1.946 2.248-3.895 3.432-5.946"/><path fill="#e7461e" d="m45.367 11.995 7.756-3.663c-.063 6.455 1.987 12.025 6.496 16.74-.885.401-1.942.585-2.97.854-1.837.479-3.627 1.143-5.52 1.406-.156-.192-.292-.405-.47-.573-1.504-1.406-2.621-3.085-3.531-4.918-1.547-3.112-1.953-6.424-1.761-9.846"/><path fill="#fefefe" d="M45.367 11.995c-.192 3.421.214 6.734 1.761 9.846.911 1.833 2.027 3.512 3.531 4.918.179.167.314.381.47.573l-8.542 2.348a15.3 15.3 0 0 1-4.175-5.457c-1.221-2.673-1.428-5.473-1.135-8.346 2.636-1.419 5.384-2.607 8.09-3.882"/><path fill="#e7461e" d="M37.276 15.877c-.293 2.874-.085 5.673 1.135 8.346a15.3 15.3 0 0 0 4.175 5.457c-3.113 1.029-6.312 1.753-9.464 2.64-.208.059-.422.099-.634.147-.108-.152-.196-.324-.327-.453-2.076-2.042-3.306-4.533-3.953-7.347-.334-1.454-.188-2.936-.318-4.4 3.108-1.509 6.207-3.036 9.386-4.39"/><path fill="#fefefe" d="M27.89 20.267c.13 1.464-.016 2.946.318 4.4.647 2.813 1.877 5.304 3.953 7.347.131.128.219.3.327.453L23.88 34.78c-.57-.667-1.228-1.248-1.75-1.964-1.886-2.585-2.501-5.497-2.301-8.631z"/><path fill="#e7461e" d="M19.829 24.184c-.2 3.135.416 6.046 2.301 8.631.522.716 1.181 1.297 1.75 1.964q-4.698 1.313-9.398 2.621c-.326.091-.578-.014-.846-.25-2.443-2.16-3.257-4.975-3.304-8.105-.004-.29.05-.556.365-.702 2.983-1.383 5.963-2.773 8.945-4.157.052-.025.124-.003.187-.002"/><path fill="#fefefe" d="M54.565 10.178c.023-.796.034-1.58.347-2.324.247-.586.58-.816 1.248-.542 1.082.444 1.765 1.299 2.39 2.197 2.42 3.473 3.821 7.328 4.171 11.549.076.907.035 1.813-.378 2.674-.364.759-.871.816-1.516.418a5.9 5.9 0 0 1-1.595-1.46c-2.821-3.699-4.297-7.902-4.667-12.512M64.119 21.033c-.532-4.807-2.082-9.045-4.941-13.007 1.884.449 3.577.849 5.268 1.257 1.797.434 3.586.898 5.39 1.301.761.17.841.475.437 1.088-2.024 3.059-4.032 6.129-6.154 9.361"/></g></svg>