<svg xmlns="http://www.w3.org/2000/svg" width="600" height="600"><path fill="#fefefe" d="M0 0h600v600H0z"/><path fill="#5f83a1" d="m466 131 3.867.129c17.129.667 34.21 2.824 51.07 5.871l2.691.466 2.462.471 2.152.403C530 139 530 139 532 142c3.03 15.389 2.786 33.43-3 48q-.672 2.367-1.328 4.738c-1.586 5.376-3.933 10.105-6.61 15.012l-1.302 2.457c-2.376 4.434-4.889 8.663-7.76 12.793 6.92-1.605 11.49-4.625 16.836-9.258C531 214 531 214 534 213a69 69 0 0 0 2-4c1.39-2.047 2.8-4.06 4.25-6.062l1.31-1.834a431 431 0 0 1 7.827-10.545c7.927-10.42 14.601-21.042 20.598-32.684C571 156 571 156 573 153c6.307 1.728 12.441 3.837 18.563 6.125l2.166.805c5.145 1.944 5.145 1.944 6.271 3.07.099 2.326.132 4.622.123 6.948l.004 2.24q.002 3.761-.007 7.522 0 2.706.003 5.41.002 7.47-.007 14.941-.005 8.043-.002 16.084 0 13.945-.008 27.891-.011 20.164-.012 40.327-.004 32.71-.019 65.419-.014 31.784-.02 63.566v3.995l-.007 30.93c-.01 50.576-.03 101.151-.048 151.727H168c7.632-7.632 15.588-14.742 23.984-21.52 3.563-2.93 7.04-5.948 10.516-8.98 4.282-3.734 8.583-7.425 13-11 5.033-4.078 9.923-8.305 14.808-12.558 5.656-4.922 11.37-9.773 17.104-14.604q4.015-3.384 8.025-6.775l1.614-1.364c3.441-2.912 6.866-5.843 10.283-8.783 4.68-4.027 9.374-8.023 14.166-11.916 6.61-5.372 13.048-10.94 19.5-16.5 8.606-7.408 17.253-14.759 26-22 4.531 1.578 6.803 5.154 9.625 8.813l1.606 2.045c1.598 2.041 3.185 4.09 4.769 6.142l1.307 1.688q2.997 3.875 5.974 7.769c3.343 4.365 6.719 8.704 10.094 13.043l3.523 4.531 1.62 2.086a233 233 0 0 0 3.896 4.79C371 517 371 517 371 519c5.789-4.08 10.968-8.653 16.168-13.453 4.125-3.71 8.451-7.145 12.832-10.547-3.925-6.353-8.436-12.134-13.122-17.928C376.577 464.316 366.81 451.134 357 438c6.477-6.545 13.276-12.65 20.438-18.437A228 228 0 0 0 388.5 410c4.368-4.016 8.868-7.794 13.484-11.52 3.563-2.93 7.04-5.948 10.516-8.98 4.382-3.823 8.79-7.592 13.313-11.25 4.412-3.574 8.65-7.3 12.843-11.129 2.143-1.94 4.327-3.814 6.531-5.683 3.36-2.922 6.238-6.092 9.11-9.489 1.594-1.824 3.257-3.473 5.015-5.137 9.83-9.784 20.851-23.404 21.313-37.875-.676-9.79-1.745-18.685-8.625-25.937-.837-3.532.224-5.61 1.832-8.703 8.07-15.93 8.968-29.518 8.168-47.297l-.424 1.857C478.21 243.327 474.304 256.544 466 269c-2.187.563-2.187.563-5 0-1.496-1.172-1.496-1.172-3.125-2.687C447.695 256.97 434.157 255.859 421 255c-1.542-4.878-2.255-9.244-2.625-14.375-.859-8.88-4.4-16.058-8.492-23.876-1.109-2.196-2.024-4.445-2.883-6.749l-2.562 2.5c-2.443 1.993-3.47 2.506-6.688 3.125-6.143-1.024-11.503-2.986-15.629-7.832a186 186 0 0 1-3.351-5.121c-2.456-3.708-5.42-6.824-8.43-10.086-3.962-4.378-7.643-8.984-11.34-13.586l-2.324-2.512C355 174 355 174 354.773 171.508c1.93-3.946 5.126-5.48 8.852-7.633l2.382-1.411c6.604-3.831 13.383-7.302 20.243-10.651l2.956-1.46c8.92-4.233 8.92-4.233 13.794-3.353 17.959 9.853 29.153 46.281 38 64 .105-.796.21-1.592.32-2.412.489-3.655.99-7.31 1.493-10.963l.501-3.793c.772-5.562 1.58-10.898 3.323-16.246 2.6-8.152 1.148-14.34-1.95-22.149l-.935-2.458c-1.4-3.653-2.866-7.223-4.545-10.756-1.265-3.379-1.33-4.853-.207-8.223 9.194-2.11 17.538-3.467 27-3"/><path fill="#94cbf9" d="M600 334v266H289c3.518-4.221 6.039-7.058 10.188-10.312 3.709-2.965 7.307-5.985 10.812-9.188 4.346-3.96 8.846-7.684 13.414-11.383 2.237-1.832 4.422-3.7 6.586-5.617 3.06-2.71 6.198-5.303 9.375-7.875 4.5-3.657 8.81-7.47 13.094-11.375 2.62-2.329 5.306-4.546 8.031-6.75 4.526-3.664 8.876-7.478 13.184-11.395 6.734-6.12 13.68-12.003 20.593-17.918q3.682-3.15 7.352-6.312c5.325-4.584 10.66-9.139 16.121-13.562 4.382-3.556 8.567-7.28 12.738-11.079 2.514-2.235 5.085-4.368 7.7-6.484 6.44-5.215 12.667-10.663 18.916-16.104 4.694-4.075 9.425-8.108 14.149-12.149q2.677-2.296 5.349-4.599c5.334-4.592 10.678-9.154 16.148-13.586 4.382-3.555 8.567-7.28 12.738-11.078 2.514-2.235 5.085-4.368 7.7-6.484 6.437-5.214 12.664-10.66 18.911-16.1 7.945-6.899 15.961-13.715 24.003-20.502 4.027-3.401 8.027-6.834 12.023-10.273a551 551 0 0 1 12.625-10.562c4.53-3.672 8.866-7.517 13.156-11.465C598.266 334 598.266 334 600 334"/><path fill="#050506" d="m466 131 3.867.129c17.129.667 34.21 2.824 51.07 5.871l2.691.466 2.462.471 2.152.403C530 139 530 139 532 142c3.03 15.389 2.786 33.43-3 48q-.672 2.367-1.328 4.738c-1.586 5.376-3.933 10.105-6.61 15.012l-1.302 2.457c-2.376 4.434-4.889 8.663-7.76 12.793 6.92-1.605 11.49-4.625 16.836-9.258C531 214 531 214 534 213a69 69 0 0 0 2-4c1.39-2.047 2.8-4.06 4.25-6.062l1.31-1.834a431 431 0 0 1 7.827-10.545c7.927-10.42 14.601-21.042 20.598-32.684C571 156 571 156 573 153c6.307 1.728 12.441 3.837 18.563 6.125l2.166.805c5.145 1.944 5.145 1.944 6.271 3.07.073 2.353.084 4.708.063 7.063l-.028 3.91L600 177c-6.423-2.068-12.65-4.43-18.887-7.012-3.397-1.078-5.59-1.608-9.113-.988-1.853 1.945-3.096 3.573-4.5 5.813q-1.296 1.936-2.598 3.867l-1.402 2.112c-2.695 3.968-5.575 7.798-8.437 11.645-3.391 4.563-6.777 9.121-10.016 13.793-11.135 15.977-28.03 28.45-47.047 33.77.526-4.78 2.787-8.146 5.375-12.062C518.92 203.497 528.899 181.586 527 152l-1.941-.168c-5.116-.472-10.035-1.168-15.059-2.27-20.016-3.99-40.678-3.889-61-3.562l.583 1.86a701 701 0 0 1 2.542 8.515l.918 2.926c2.015 6.982 1.858 11.754-.043 18.699q-.47 2.31-.895 4.629l-.45 2.4c-2.94 15.93-5.29 31.948-7.655 47.971-2.165-3.247-3.315-6.5-4.598-10.145-3.24-8.903-7.422-17.175-11.84-25.542l-2.197-4.221c-8.668-16.84-8.668-16.84-18.365-33.092-4.96.518-8.748 1.561-13.195 3.8l-3.418 1.714-3.512 1.798-3.535 1.764c-5.202 2.631-9.87 5.145-14.34 8.924.354 5.345 3.384 8.211 6.813 12l3.207 3.625 1.543 1.739c5.342 6.08 5.342 6.08 5.812 8.823L387 206c4.308 2.052 8.285 2.674 13 2 1.812-1.426 3.251-2.928 4.738-4.687L406 202h2c15.95 27.612 15.95 27.612 16 40l2.094-.54c11.864-1.88 25.31 3.258 35.031 9.79l2.07 1.516c1.894 1.416 1.894 1.416 4.805 2.234a653 653 0 0 0 6.188-21.562l.826-2.96c2.29-8.584 2.461-15.78.986-24.54l-.562-3.41L475 200l2-1q2.178 5.056 4.336 10.121c1.024 2.4 2.07 4.784 3.14 7.164 2.67 6.048 4.348 11.116 4.524 17.715l.258 3.703c.472 9.228-.833 16.7-4.211 25.32-2.108 5.384-2.108 5.384-1.047 10.977 1.26 2.23 1.26 2.23 2.813 4.438 5.108 8.214 7.546 17.949 8.187 27.562l.191 2.281c.354 7.207-1.576 13.064-4.191 19.719l-1.355 3.523c-4.61 11.397-9.766 19.445-19.5 27.008-3.59 2.818-7.023 5.78-10.457 8.781l-3.86 3.36-1.932 1.682c-4.694 4.075-9.425 8.108-14.149 12.149q-2.677 2.296-5.349 4.599c-5.334 4.592-10.678 9.154-16.148 13.586-4.382 3.555-8.567 7.28-12.738 11.078-3.39 3.015-6.915 5.85-10.442 8.703-4.324 3.565-8.546 7.242-12.768 10.927A563 563 0 0 1 371 443c2.752 5.095 5.814 9.484 9.5 13.938 5.892 7.236 11.512 14.651 17.073 22.144 2.465 3.314 4.946 6.616 7.427 9.918 9.114-4.381 16.71-12.443 24.308-19.058 4.058-3.533 8.14-7.036 12.255-10.505a2068 2068 0 0 0 13.375-11.375l1.76-1.51L462 442a3182 3182 0 0 1 22.031-18.781c4.232-3.576 8.416-7.205 12.594-10.844a574 574 0 0 1 15.832-13.266c2.579-2.139 5.066-4.353 7.543-6.609 4.197-3.822 8.537-7.415 12.95-10.984 3.57-2.945 7.062-5.973 10.55-9.016 4.382-3.823 8.79-7.592 13.313-11.25A231 231 0 0 0 567 352.5c4.186-3.811 8.512-7.396 12.914-10.953 4.473-3.653 8.799-7.481 13.136-11.294l1.86-1.628 1.66-1.46C598 326 598 326 600 325c1.03 7.479 1.03 7.479-1.229 10.816-1.78 1.7-3.622 3.198-5.583 4.684l-2.072 1.677A447 447 0 0 1 585 347q-2.913 2.368-5.812 4.75l-2.645 2.14c-2.579 2.14-5.066 4.354-7.543 6.61a231 231 0 0 1-10.187 8.75c-6.438 5.214-12.665 10.66-18.912 16.1-7.947 6.9-15.968 13.717-24.01 20.508a2133 2133 0 0 0-11.828 10.08l-1.756 1.505a5639 5639 0 0 0-8.916 7.666c-5.332 4.59-10.674 9.15-16.141 13.579-4.382 3.555-8.567 7.28-12.738 11.078-2.514 2.235-5.085 4.368-7.7 6.484-6.44 5.215-12.667 10.663-18.916 16.104-4.694 4.075-9.425 8.108-14.149 12.149q-2.677 2.296-5.349 4.599c-5.334 4.592-10.678 9.154-16.148 13.586-4.438 3.604-8.704 7.36-12.934 11.207-7.342 6.674-14.93 13.074-22.47 19.524l-7.11 6.093-3.476 2.978q-4.458 3.817-8.9 7.65c-5.142 4.433-10.28 8.842-15.61 13.048-4.228 3.338-8.205 6.897-12.184 10.527-2.63 2.342-5.328 4.57-8.066 6.785-4.471 3.619-8.773 7.378-13.016 11.262L296 594l-1.355 1.507c-3.476 3.552-6.09 4.907-11.08 5.215-2.156.017-4.312.001-6.467-.04-1.181 0-2.363 0-3.58.002a807 807 0 0 1-9.661-.076c-3.373-.037-6.745-.04-10.118-.048-6.378-.018-12.756-.068-19.134-.128-7.265-.067-14.53-.1-21.795-.13A9396 9396 0 0 1 168 600c7.611-7.641 15.593-14.747 23.984-21.52 3.563-2.93 7.04-5.948 10.516-8.98 4.282-3.734 8.583-7.425 13-11 5.033-4.078 9.923-8.305 14.808-12.558 5.656-4.922 11.37-9.773 17.104-14.604q4.015-3.384 8.025-6.775l1.614-1.364c3.441-2.912 6.866-5.843 10.283-8.783 4.68-4.027 9.374-8.023 14.166-11.916 6.61-5.372 13.048-10.94 19.5-16.5 8.606-7.408 17.253-14.759 26-22 4.531 1.578 6.803 5.154 9.625 8.813l1.606 2.045c1.598 2.041 3.185 4.09 4.769 6.142l1.307 1.688q2.997 3.875 5.974 7.769c3.343 4.365 6.719 8.704 10.094 13.043l3.523 4.531 1.62 2.086a233 233 0 0 0 3.896 4.79C371 517 371 517 371 519c5.789-4.08 10.968-8.653 16.168-13.453 4.125-3.71 8.451-7.145 12.832-10.547-3.925-6.353-8.436-12.134-13.122-17.928C376.577 464.316 366.81 451.134 357 438c6.477-6.545 13.276-12.65 20.438-18.437A228 228 0 0 0 388.5 410c4.368-4.016 8.868-7.794 13.484-11.52 3.563-2.93 7.04-5.948 10.516-8.98 4.382-3.823 8.79-7.592 13.313-11.25 4.412-3.574 8.65-7.3 12.843-11.129 2.143-1.94 4.327-3.814 6.531-5.683 3.36-2.922 6.238-6.092 9.11-9.489 1.594-1.824 3.257-3.473 5.015-5.137 9.83-9.784 20.851-23.404 21.313-37.875-.676-9.79-1.745-18.685-8.625-25.937-.837-3.532.224-5.61 1.832-8.703 8.07-15.93 8.968-29.518 8.168-47.297l-.424 1.857C478.21 243.327 474.304 256.544 466 269c-2.187.563-2.187.563-5 0-1.496-1.172-1.496-1.172-3.125-2.687C447.695 256.97 434.157 255.859 421 255c-1.542-4.878-2.255-9.244-2.625-14.375-.859-8.88-4.4-16.058-8.492-23.876-1.109-2.196-2.024-4.445-2.883-6.749l-2.562 2.5c-2.443 1.993-3.47 2.506-6.688 3.125-6.143-1.024-11.503-2.986-15.629-7.832a186 186 0 0 1-3.351-5.121c-2.456-3.708-5.42-6.824-8.43-10.086-3.962-4.378-7.643-8.984-11.34-13.586l-2.324-2.512C355 174 355 174 354.773 171.508c1.93-3.946 5.126-5.48 8.852-7.633l2.382-1.411c6.604-3.831 13.383-7.302 20.243-10.651l2.956-1.46c8.92-4.233 8.92-4.233 13.794-3.353 17.959 9.853 29.153 46.281 38 64 .105-.796.21-1.592.32-2.412.489-3.655.99-7.31 1.493-10.963l.501-3.793c.772-5.562 1.58-10.898 3.323-16.246 2.6-8.152 1.148-14.34-1.95-22.149l-.935-2.458c-1.4-3.653-2.866-7.223-4.545-10.756-1.265-3.379-1.33-4.853-.207-8.223 9.194-2.11 17.538-3.467 27-3"/><path fill="#7f7f7f" d="M600 467v133H444c3.1-3.875 5.467-6.38 9.25-9.375a236 236 0 0 0 12.191-10.41C467 579 467 579 469 579v-2c1.467-1.333 3.003-2.59 4.563-3.812A411 411 0 0 0 487.5 561.5c4.382-3.824 8.79-7.592 13.313-11.25 4.438-3.592 8.692-7.346 12.898-11.207C520.48 533 520.48 533 523 533v-2c1.487-1.354 3.044-2.631 4.625-3.875a485 485 0 0 0 13.625-11.312l1.713-1.475 1.678-1.443 1.654-1.42a346 346 0 0 0 3.613-3.173l1.889-1.665 1.714-1.529C555 504 555 504 557 504v-2c1.66-1.488 1.66-1.488 4.063-3.312 4.538-3.539 8.915-7.215 13.25-11 4.933-4.3 9.88-8.582 14.875-12.813l1.6-1.36C598.493 467 598.493 467 600 467"/><path fill="#6083a0" d="M332 478c3.68 3.43 6.539 7.274 9.5 11.313 5.554 7.494 11.328 14.786 17.184 22.046 2.817 3.512 5.57 7.074 8.316 10.641-1.299 2.917-2.588 4.786-5.02 6.848l-1.828 1.566-1.964 1.649A1573.331 1573.331 0 0 1 350 539q-1.697 1.436-3.392 2.874a2810 2810 0 0 1-6.355 5.371c-3.48 2.937-6.928 5.909-10.379 8.879a547 547 0 0 1-12.312 10.313c-6.337 5.147-12.47 10.52-18.627 15.88-3.177 2.76-6.367 5.504-9.561 8.245l-1.72 1.48A934 934 0 0 1 283 596l-2.149 2.132c-3.805 2.493-7.1 2.4-11.497 2.322l-2.603.002c-2.83-.003-5.66-.034-8.49-.065q-2.947-.012-5.897-.018c-5.167-.015-10.334-.054-15.5-.098-5.276-.041-10.551-.06-15.827-.08A7768 7768 0 0 1 190 600c7.96-7.99 16.24-15.478 25.016-22.555 7.935-6.502 15.645-13.294 23.234-20.195 4.253-3.858 8.661-7.492 13.129-11.098 3.109-2.552 6.098-5.22 9.062-7.937C262 537 262 537 264 537v-2c1.508-1.375 3.085-2.674 4.688-3.937l3.042-2.434 1.623-1.296c2.756-2.23 5.449-4.533 8.147-6.833 4.172-3.54 8.352-7.07 12.563-10.562l2.597-2.16c2.064-1.568 3.981-2.727 6.34-3.778v-2c1.487-1.354 3.044-2.631 4.625-3.875 5.304-4.238 10.471-8.605 15.602-13.05 2.856-2.465 5.712-4.864 8.773-7.075"/><path fill="#5e82a0" d="m356 193 1.652 2.973 2.286 4.09 1.215 2.188c2.032 3.633 4.106 7.206 6.378 10.694 4.709 7.286 7 12.463 7.828 21.282.775 3.352 1.813 4.549 4.454 6.71 2.854 1.733 3.648 2.159 7 1.563L389 241c3-2 3-2 5.688-1.625L397 240c4.266 16.986 3.243 33.672 2 51l-2.133.375c-9.174 1.916-19.103 5.86-25.867 12.625-1.988-.117-1.988-.117-4-1-1.168-1.758-1.168-1.758-2.187-4.125-9.19-19.74-21.12-36.095-41.813-44.75-5.463-1.825-11.31-2.388-17-3.125-1.669-10.488 7.616-20.067 13.375-28.125C326.861 212.602 334.111 203.797 345 197l2.047-1.316c3.339-2.048 4.93-2.684 8.953-2.684"/><path fill="#5f82a0" d="M315 276c18.349 5.646 40.723 16.73 50.063 34.313 2.525 5.44 4.693 11.016 6.812 16.625l.942 2.475c2.942 8.061 2.942 8.061 2.183 11.587-1.941 2.36-1.941 2.36-4.562 4.75-3.337 3.167-6.402 6.274-9.188 9.938l-1.68 2.207a286 286 0 0 0-3.015 4.117c-3.032 3.951-5.821 6.3-10.68 7.613-10.893 1.42-22.424.242-31.875-5.625-6.19-4.964-9.137-11.412-11-19-.613-5.802-.677-11.546-.625-17.375l.007-2.41C302.485 307.32 305.9 291.588 315 276"/><path fill="#020202" d="M600 467c2.255 26.193 2.255 26.193-2.824 32.309C593.915 502.318 589.598 506 585 506v2c-1.467 1.333-3.003 2.59-4.562 3.813-5.5 4.395-10.83 8.952-16.134 13.58Q561.656 527.703 559 530l-1.712 1.502C553.228 535 553.228 535 551 535v2c-1.467 1.333-3.003 2.59-4.562 3.813-5.5 4.395-10.83 8.952-16.134 13.58Q527.656 556.703 525 559l-1.712 1.502C519.228 564 519.228 564 517 564v2c-1.695 1.523-1.695 1.523-4.125 3.375a334 334 0 0 0-12.625 10.375l-1.77 1.522q-2.74 2.362-5.48 4.728a7051 7051 0 0 1-7.687 6.625l-1.783 1.542c-5.165 4.445-8.056 6.13-14.823 6.028l-2.14-.008a1066 1066 0 0 1-6.755-.062q-2.29-.016-4.583-.027-5.615-.035-11.229-.098c2.836-3.635 5.63-6.51 9.25-9.375a236 236 0 0 0 12.191-10.41C467 579 467 579 469 579v-2c1.467-1.333 3.003-2.59 4.563-3.812A411 411 0 0 0 487.5 561.5c4.382-3.824 8.79-7.592 13.313-11.25 4.438-3.592 8.692-7.346 12.898-11.207C520.48 533 520.48 533 523 533v-2c1.487-1.354 3.044-2.631 4.625-3.875a485 485 0 0 0 13.625-11.312l1.713-1.475 1.678-1.443 1.654-1.42a346 346 0 0 0 3.613-3.173l1.889-1.665 1.714-1.529C555 504 555 504 557 504v-2c1.66-1.488 1.66-1.488 4.063-3.312 4.538-3.539 8.915-7.215 13.25-11 4.933-4.3 9.88-8.582 14.875-12.813l1.6-1.36C598.493 467 598.493 467 600 467"/><path fill="#fc3e03" d="m251.125 253.867 3.875.008 3.875-.008C262 254 262 254 263 255c.096 1.506.122 3.016.12 4.524l.004 2.962-.01 3.276v3.429c0 3.76-.009 7.521-.016 11.282l-.005 7.798q-.005 9.232-.021 18.465-.016 10.509-.022 21.018-.016 21.622-.05 43.246h12c-.558 5.335-2.402 9.33-4.816 14.023l-1.14 2.262c-1.194 2.367-2.4 4.728-3.606 7.09q-1.223 2.415-2.444 4.832Q260.008 405.109 257 411c-2.237-.04-2.237-.04-5-1a55 55 0 0 1-4.207-7.36l-1.122-2.246a487 487 0 0 1-2.311-4.721 562 562 0 0 0-3.561-7.196 2173 2173 0 0 1-2.256-4.586l-1.08-2.166C235.543 377.71 235 375.589 235 371h12l-.007-4.397q-.03-20.462-.045-40.925-.007-10.521-.023-21.042-.016-10.144-.02-20.288-.003-3.88-.01-7.76-.01-5.412-.009-10.826l-.01-3.276.004-2.962-.003-2.59c.209-3.283.886-2.924 4.248-3.067"/><path fill="#060707" d="m356 193 1.652 2.973 2.286 4.09 1.215 2.188c2.032 3.633 4.106 7.206 6.378 10.694 4.709 7.286 7 12.463 7.828 21.282.775 3.352 1.813 4.549 4.454 6.71 2.854 1.733 3.648 2.159 7 1.563L389 241c3-2 3-2 5.688-1.625L397 240c4.266 16.986 3.243 33.672 2 51l-2.133.375c-9.174 1.916-19.103 5.86-25.867 12.625-1.988-.117-1.988-.117-4-1-1.168-1.758-1.168-1.758-2.187-4.125-9.19-19.74-21.12-36.095-41.813-44.75-5.463-1.825-11.31-2.388-17-3.125-1.669-10.488 7.616-20.067 13.375-28.125C326.861 212.602 334.111 203.797 345 197l2.047-1.316c3.339-2.048 4.93-2.684 8.953-2.684m-7.812 17.938-2.395 1.652c-7.241 6.249-12.844 13.918-18.293 21.722l-1.914 2.667-1.805 2.572-1.623 2.302c-1.474 2.327-1.474 2.327-1.158 6.147l3.113 1.504C343.93 259.167 355.154 269.12 365 289c6.079-.664 10.212-3.223 15.39-6.309 4.453-2.086 8.78-2.918 13.61-3.691.059-3.48.094-6.958.125-10.437l.05-2.952c.042-6.2-.599-11.611-2.175-17.611-4.01.558-4.01.558-7.82 1.824-3.013.243-4.448-1.111-6.696-2.984-6.052-5.51-8.308-8.716-8.796-17.137-1.47-7.92-6.52-14.903-10.688-21.703-4.267-.356-6.348.47-9.812 2.938"/><path fill="#050607" d="M315 276c18.349 5.646 40.723 16.73 50.063 34.313 2.525 5.44 4.693 11.016 6.812 16.625l.942 2.475c2.942 8.061 2.942 8.061 2.183 11.587-1.941 2.36-1.941 2.36-4.562 4.75-3.337 3.167-6.402 6.274-9.188 9.938l-1.68 2.207a286 286 0 0 0-3.015 4.117c-3.032 3.951-5.821 6.3-10.68 7.613-10.893 1.42-22.424.242-31.875-5.625-6.19-4.964-9.137-11.412-11-19-.613-5.802-.677-11.546-.625-17.375l.007-2.41C302.485 307.32 305.9 291.588 315 276m9 11q-1.167 3.121-2.312 6.25l-1.301 3.516c-3.457 10.222-4.867 19.558-4.762 30.359l-.035 3.629c.023 7.068.443 13.73 3.41 20.246 2.143 2.153 2.143 2.153 5 3l3 1.188c5.442 1.42 11.448 1.51 17 .812 1.93-1.265 1.93-1.265 3-3v-2l3-1v-3h2c2.398-2.637 2.398-2.637 3-6l3-1v-2l3-1c2.207-2.056 3.608-3.414 5-6 .112-3.237-.106-4.983-1-8l-.812-2.758c-2.226-6.266-5.276-11.041-9.688-15.93l-1.402-1.567c-2.857-2.992-4.94-4.421-9.098-4.745v-2h-3l-.734-1.863c-1.55-2.618-2.736-3.166-5.516-4.324l-2.266-.981c-2.807-.94-5.557-1.413-8.484-1.832"/><path fill="#19171a" d="M334 504c3.453 1.15 4.38 2.32 6.688 5.063l1.886 2.222L344 513c-3.845 3.896-7.797 7.656-11.812 11.375l-1.893 1.754c-5.4 4.99-10.906 9.835-16.502 14.605l-3.606 3.078-1.826 1.56c-4.754 4.074-9.391 8.259-14.006 12.491A198 198 0 0 1 286 565c1.173 2.88 2.38 4.38 4.625 6.625C293 574 293 574 293 576q-6.401 1.476-12.805 2.936-2.174.497-4.347.998-3.142.723-6.286 1.437l-3.808.873c-3.921.79-7.781 1.308-11.754 1.756.746-4.38 2.084-8.509 3.504-12.707l.735-2.198q1.159-3.455 2.324-6.908l1.576-4.7Q264.065 551.74 266 546c3.297 1.099 4.047 1.946 6.188 4.563l1.605 1.94L275 554c2.867-1.315 5.045-2.756 7.375-4.875 4.532-4.06 9.153-8.008 13.789-11.949l1.762-1.504 1.575-1.34c1.555-1.342 1.555-1.342 3.066-2.999C304 530 304 530 306 530v-2c1.574-1.332 1.574-1.332 3.688-2.812 3.473-2.44 6.336-5.162 9.312-8.188a589 589 0 0 1 5.563-5.125l2.816-2.57c4.678-4.114 4.678-4.114 6.621-5.305"/><path fill="#080504" d="m251.125 253.867 3.875.008 3.875-.008C262 254 262 254 263 255c.096 1.506.122 3.016.12 4.524l.004 2.962-.01 3.276v3.429c0 3.76-.009 7.521-.016 11.282l-.005 7.798q-.005 9.232-.021 18.465-.016 10.509-.022 21.018-.016 21.622-.05 43.246h12c-.558 5.335-2.402 9.33-4.816 14.023l-1.14 2.262c-1.194 2.367-2.4 4.728-3.606 7.09q-1.223 2.415-2.444 4.832Q260.008 405.109 257 411c-2.237-.04-2.237-.04-5-1a55 55 0 0 1-4.207-7.36l-1.122-2.246a487 487 0 0 1-2.311-4.721 562 562 0 0 0-3.561-7.196 2173 2173 0 0 1-2.256-4.586l-1.08-2.166C235.543 377.71 235 375.589 235 371h12l-.007-4.397q-.03-20.462-.045-40.925-.007-10.521-.023-21.042-.016-10.144-.02-20.288-.003-3.88-.01-7.76-.01-5.412-.009-10.826l-.01-3.276.004-2.962-.003-2.59c.209-3.283.886-2.924 4.248-3.067M249 256v117h-12c1.415 4.616 3.295 8.856 5.477 13.148l1 1.993c1.045 2.08 2.097 4.157 3.148 6.234l2.14 4.254q2.612 5.19 5.235 10.371c3.327-2.757 4.928-6.458 6.793-10.258l1.063-2.132q1.107-2.225 2.206-4.453 1.69-3.424 3.397-6.84l2.146-4.325c.341-.685.682-1.37 1.032-2.077 1.647-2.83 1.647-2.83 2.363-5.915h-12V256z"/><path fill="#4d1c0c" d="M248 256h1v117h-12q3.6 7.238 7.208 14.471 1.228 2.463 2.453 4.927 1.76 3.535 3.523 7.067l1.11 2.238c1.524 3.37 1.524 3.37 3.706 6.297l17-34h2c-.624 4.606-2.506 8.4-4.598 12.488l-1.072 2.131a1951 1951 0 0 1-3.392 6.693l-2.3 4.557A4033 4033 0 0 1 257 411c-2.237-.038-2.237-.038-5-1a55.6 55.6 0 0 1-4.207-7.395l-1.122-2.253a494 494 0 0 1-2.311-4.734 600 600 0 0 0-3.561-7.23q-1.131-2.295-2.256-4.595l-1.08-2.182C235.78 378.094 235 375.971 235 372h13z"/></svg>