<svg xmlns="http://www.w3.org/2000/svg" width="600" height="600"><path fill="#fefefe" d="M0 0h600v600H0z"/><path fill="#94cbf9" d="M600 234v366H0c0-19 0-19 3.691-22.723C5.441 576.474 7.214 575.72 9 575a328 328 0 0 0 6.09-3.559q2.532-1.44 5.068-2.873c2.464-1.392 4.924-2.792 7.384-4.19l3.823-2.173c6.31-3.584 12.6-7.202 18.885-10.83l3.238-1.869a5842 5842 0 0 0 24.478-14.24c10.56-6.165 21.155-12.271 31.752-18.375q8.143-4.693 16.282-9.391l6.5-3.75 3.25-1.875 65-37.5 6.496-3.748a25831 25831 0 0 1 16.324-9.412A5992 5992 0 0 0 255 433c11.547-6.747 23.129-13.433 34.718-20.109q8.143-4.693 16.282-9.391l6.5-3.75 3.25-1.875 91-52.5 6.496-3.748a25831 25831 0 0 1 16.324-9.412A5992 5992 0 0 0 461 314c11.547-6.747 23.129-13.433 34.718-20.109q8.143-4.693 16.282-9.391l6.5-3.75 3.25-1.875 13.001-7.5 6.49-3.746q8.196-4.73 16.4-9.45c11.637-6.697 23.247-13.432 34.772-20.32l2.59-1.543 2.277-1.36C599 234 599 234 600 234"/><path fill="#5f83a1" d="M600 234c.209 11.24.368 22.478.466 33.72.047 5.22.11 10.438.213 15.657.098 5.038.152 10.075.175 15.114a346 346 0 0 0 .098 5.763c.365 15.033.365 15.033-2.818 19.174-2.332 1.588-4.492 2.603-7.134 3.572l-2.98 1.804-2.637 1.5-3.046 1.743-3.212 1.828a6027 6027 0 0 0-8.746 5.018c-6.37 3.665-12.688 7.413-19.004 11.17a3603 3603 0 0 1-28.172 16.576 9381 9381 0 0 0-23.828 13.923l-1.873 1.098q-13.073 7.666-26.116 15.387a6578 6578 0 0 1-24.77 14.557A5921 5921 0 0 0 423 425.5a6808 6808 0 0 1-27.384 16.104 6544 6544 0 0 0-26.24 15.45 6231 6231 0 0 1-24.418 14.344q-13.409 7.854-26.77 15.79a4234 4234 0 0 1-30.954 18.18 8380 8380 0 0 0-20.859 12.195l-1.873 1.097a7206 7206 0 0 0-26.127 15.394 6214 6214 0 0 1-24.417 14.344q-13.409 7.854-26.77 15.79c-20.496 12.166-20.496 12.166-27.905 16.374-5.016 2.871-9.899 5.808-14.635 9.124-15.444 10.477-28.117 12.291-46.525 11.734-3.466-.09-6.933-.096-10.401-.113-6.525-.043-13.046-.157-19.569-.299-7.443-.158-14.887-.234-22.332-.303-15.276-.146-30.548-.39-45.821-.705a578 578 0 0 1-.23-9.267l-.094-2.652c-.092-6.496-.092-6.496 2.028-9.479C4.044 577.042 6.39 576.05 9 575a328 328 0 0 0 6.09-3.559q2.532-1.44 5.068-2.873c2.464-1.392 4.924-2.792 7.384-4.19l3.823-2.173c6.31-3.584 12.6-7.202 18.885-10.83l3.238-1.869a5842 5842 0 0 0 24.478-14.24c10.56-6.165 21.155-12.271 31.752-18.375q8.143-4.693 16.282-9.391l6.5-3.75 3.25-1.875 65-37.5 6.496-3.748a25831 25831 0 0 1 16.324-9.412A5992 5992 0 0 0 255 433c11.547-6.747 23.129-13.433 34.718-20.109q8.143-4.693 16.282-9.391l6.5-3.75 3.25-1.875 91-52.5 6.496-3.748a25831 25831 0 0 1 16.324-9.412A5992 5992 0 0 0 461 314c11.547-6.747 23.129-13.433 34.718-20.109q8.143-4.693 16.282-9.391l6.5-3.75 3.25-1.875 13.001-7.5 6.49-3.746q8.196-4.73 16.4-9.45c11.637-6.697 23.247-13.432 34.772-20.32l2.59-1.543 2.277-1.36C599 234 599 234 600 234"/><path fill="#7f7f7f" d="M600 435v165H318c3.52-2.817 6.492-4.993 10.332-7.18l3.131-1.793 3.35-1.902q2.64-1.51 5.278-3.022l3.606-2.064a2129 2129 0 0 0 17.428-10.101l2.983-1.743 5.946-3.474q4.38-2.559 8.762-5.112A13550 13550 0 0 0 411.5 544.5q17.776-10.424 35.58-20.798 7.462-4.35 14.92-8.702l6-3.5 3-1.75 11.999-7 6.012-3.507q7.406-4.32 14.813-8.638 16.35-9.53 32.676-19.105a12647 12647 0 0 1 32.586-19.05q6.357-3.707 12.703-7.43l3.37-1.974a4564 4564 0 0 0 6.442-3.781l2.895-1.695 2.568-1.507C599 435 599 435 600 435"/><path fill="#030303" d="M600 234c.244 2.203.418 4.413.563 6.625l.316 3.727c-.98 4.071-1.376 4.443-4.664 6.687A193 193 0 0 1 591 254l-2.81 1.618a672 672 0 0 1-9.19 5.132c-7.189 3.992-14.366 7.99-21.437 12.188-7.01 4.16-14.061 8.245-21.125 12.312A4560 4560 0 0 0 511 300c-11.547 6.747-23.129 13.433-34.718 20.109Q468.14 324.802 460 329.5q-9.783 5.646-19.57 11.285A5992 5992 0 0 0 409 359c-11.547 6.747-23.129 13.433-34.718 20.109Q366.14 383.802 358 388.5l-6.5 3.75-3.25 1.875-13 7.5-6.496 3.748a25831 25831 0 0 1-16.324 9.412 5521 5521 0 0 0-31.305 18.152 2779 2779 0 0 1-26 15 6091 6091 0 0 0-55.091 31.796c-10.56 6.166-21.155 12.272-31.752 18.376Q160.14 502.802 152 507.5q-9.783 5.646-19.57 11.285A5992 5992 0 0 0 101 537c-13.73 8.023-27.51 15.959-41.291 23.896a7727 7727 0 0 0-41.201 23.885l-2.69 1.57q-3.075 1.8-6.143 3.61l-3.308 1.945-3.035 1.791C1 595 1 595 0 595a147 147 0 0 1-.562-6.625l-.317-3.727c.977-4.054 1.337-4.415 4.606-6.644A216 216 0 0 1 9 575l2.947-1.725a672 672 0 0 1 8.21-4.707c2.465-1.392 4.925-2.792 7.385-4.19l3.823-2.173c6.31-3.584 12.6-7.202 18.885-10.83l3.238-1.869a5842 5842 0 0 0 24.478-14.24c10.56-6.165 21.155-12.271 31.752-18.375q8.143-4.693 16.282-9.391l6.5-3.75 3.25-1.875 65-37.5 6.496-3.748a25831 25831 0 0 1 16.324-9.412A5992 5992 0 0 0 255 433c11.547-6.747 23.129-13.433 34.718-20.109q8.143-4.693 16.282-9.391l6.5-3.75 3.25-1.875 91-52.5 6.496-3.748a25831 25831 0 0 1 16.324-9.412A5992 5992 0 0 0 461 314c11.547-6.747 23.129-13.433 34.718-20.109q8.143-4.693 16.282-9.391l6.5-3.75 3.25-1.875 13.001-7.5 6.49-3.746q8.196-4.73 16.4-9.45c11.637-6.697 23.247-13.432 34.772-20.32l2.59-1.543 2.277-1.36C599 234 599 234 600 234"/><path fill="#010101" d="M600 435c1.523 7.923 2.708 16.235 0 24-5.295 6.146-13.374 9.145-20.622 12.416-5.298 2.485-10.244 5.506-15.253 8.522q-2.999 1.756-6.004 3.503l-3.04 1.77c-5.289 3.07-10.592 6.115-15.894 9.164A2140 2140 0 0 0 512.5 510c-14.164 8.423-28.439 16.648-42.73 24.854a2946 2946 0 0 0-39.524 23.095c-8.034 4.77-16.122 9.435-24.246 14.051-12.82 7.285-25.514 14.768-38.171 22.331L365 596c-1.614 1.08-1.614 1.08-3.26 2.184-4.306 2.438-8.327 2.326-13.174 2.207l-2.66-.018a806 806 0 0 1-8.344-.123q-2.843-.03-5.685-.055c-4.626-.044-9.251-.113-13.877-.195 3.302-2.745 6.603-5.056 10.332-7.18l3.131-1.793 3.35-1.902q2.64-1.51 5.278-3.022l3.606-2.064a2129 2129 0 0 0 17.428-10.101l2.983-1.743 5.946-3.474q4.38-2.559 8.762-5.112A13550 13550 0 0 0 411.5 544.5q17.776-10.424 35.58-20.798 7.462-4.35 14.92-8.702l6-3.5 3-1.75 11.999-7 6.012-3.507q7.406-4.32 14.813-8.638 16.35-9.53 32.676-19.105a12647 12647 0 0 1 32.586-19.05q6.357-3.707 12.703-7.43l3.37-1.974a4564 4564 0 0 0 6.442-3.781l2.895-1.695 2.568-1.507C599 435 599 435 600 435"/><path fill="#030404" d="M600 313c.776 5.001.776 5.001 0 8-1.606 1.498-1.606 1.498-3.793 2.844l-2.49 1.55L591 327l-2.743 1.626a944 944 0 0 1-9.132 5.249 6027 6027 0 0 0-6.953 3.988l-1.793 1.03c-6.37 3.665-12.688 7.413-19.004 11.17a3603 3603 0 0 1-28.172 16.576 9381 9381 0 0 0-23.828 13.923l-1.873 1.098q-13.073 7.666-26.116 15.387a6578 6578 0 0 1-24.77 14.557A5921 5921 0 0 0 423 425.5a6808 6808 0 0 1-27.384 16.104 6544 6544 0 0 0-26.24 15.45 6231 6231 0 0 1-24.418 14.344q-13.409 7.854-26.77 15.79a4234 4234 0 0 1-30.954 18.18 8380 8380 0 0 0-20.859 12.195l-1.873 1.097a7206 7206 0 0 0-26.127 15.394 6214 6214 0 0 1-24.417 14.344q-13.409 7.854-26.77 15.79c-9.416 5.588-18.834 11.173-28.324 16.634-5.118 2.95-10.157 5.979-15.134 9.162-11.397 7.18-19.966 12.566-33.73 10.016a70 70 0 0 1 10.402-7.215l3.162-1.808c1.113-.632 2.226-1.264 3.374-1.914q3.551-2.031 7.101-4.067l1.8-1.03a1207 1207 0 0 0 15.974-9.341 5566 5566 0 0 1 25.25-14.875l1.849-1.083 9.35-5.478q8.218-4.814 16.434-9.631l5.416-3.175q8.228-4.822 16.454-9.647a16052 16052 0 0 1 38.349-22.435c11.472-6.688 22.925-13.409 34.38-20.128q10.005-5.867 20.011-11.732l18.26-10.705a16052 16052 0 0 1 38.349-22.435q11.645-6.792 23.272-13.613l1.835-1.076L414 421l14.813-8.687 1.835-1.077Q442.814 404.102 455 397q13.164-7.673 26.313-15.375l1.846-1.081c8.86-5.193 17.7-10.422 26.529-15.669A2086 2086 0 0 1 536 349.5a2190 2190 0 0 0 26.75-15.625l3.37-2q8.207-4.875 16.4-9.773l3.092-1.844q2.886-1.719 5.764-3.45l2.565-1.527c.74-.443 1.48-.885 2.24-1.342C598 313 598 313 600 313"/></svg>