<svg xmlns="http://www.w3.org/2000/svg" xml:space="preserve" width="113.39" height="113.39" viewBox="0 0 113.39 113.39"><g fill-rule="evenodd" clip-rule="evenodd"><path fill="#fefefe" d="M.19 109.799c0-36.253.002-72.507-.018-108.76 0-.708.16-.868.868-.868q55.843.031 111.688 0c.708 0 .87.16.869.868-.024 14.269-.018 28.536-.018 42.805-4.167 2.44-8.316 4.912-12.517 7.294-.82.465-.968.747-.464 1.57 1.984 3.239 3.884 6.529 5.841 9.785.305.507.322.745-.257 1.069a193 193 0 0 0-6.466 3.795c-.706.435-1.019.313-1.418-.389-1.867-3.276-3.803-6.513-5.684-9.782-.342-.595-.563-.765-1.254-.357-6.353 3.745-12.734 7.44-19.108 11.149-2.462 1.433-2.463 1.432-2.291 4.362q-.019 4.339-.034 8.676c-.001.247-.02.487.235.669.686.488 1.353 1.003 2.027 1.507.234.39.568.684.918.963.479.732 1.02 1.433 1.427 2.203 2.113 3.992 2.455 8.075.722 12.328-2.273 5.582-8.943 9.36-14.732 8.273-4.243-.796-7.535-2.956-9.839-6.633-.468-.747-.646-1.636-1.23-2.312.085-.466-.399-.776-.34-1.235.007-.063.032-.127.021-.186-1.22-6.339.662-11.43 6.085-15.083.291-.195.384-.38.291-.691v-2.994c-.335-.01-.54.21-.776.348-17.875 10.398-35.75 20.8-53.627 31.195-.29.169-.541.444-.919.431m68.4-49.323c0-6.93.004-13.858-.002-20.787-.002-2.606-1.309-4.547-3.553-5.181a8.3 8.3 0 0 0-4.569.001c-2.274.643-3.555 2.579-3.556 5.277-.003 13.89-.006 27.778.012 41.668 0 .635-.181 1-.733 1.345-4.348 2.72-6.583 8.03-5.462 12.873 1.215 5.255 5.326 9 10.568 9.628 5.769.691 11.108-2.656 13.064-8.188 1.872-5.295-.24-11.325-5.053-14.318-.555-.345-.732-.711-.73-1.344.022-6.991.014-13.983.014-20.974m-40.618-21.7c5.858 0 11.717-.012 17.575.006 1.823.006 3.545-.31 5.187-1.145 3.11-1.581 4.886-4.935 4.265-8.27-.414-2.222-1.689-3.886-3.555-5.112-.364-.238-.586-.426-.518-.955.362-2.791-1.034-5.34-3.628-6.514-.703-.318-.842-.664-.805-1.375.198-3.799-1.565-6.646-4.7-8.527-3.53-2.118-7.234-1.6-10.695.229-3.309 1.748-4.862 4.773-5.229 8.44-.036.36.087.808-.564.662-2.099-.467-4.056-.008-5.89 1.018-.437.244-.679.194-1.063-.076-3.462-2.439-7.829-2.365-11.249.159C2.408 20.782.365 27.148 2.052 32.72c1.001 3.306 3.995 6.244 8.252 6.104 5.883-.194 11.778-.048 17.668-.048m46.452-24.51c-.016 6.769 5.462 12.297 12.237 12.347 6.707.05 12.325-5.519 12.361-12.252.036-6.798-5.508-12.367-12.312-12.368-6.786-.001-12.27 5.477-12.286 12.273M11.491 48.179c-.908 1.942-1.773 3.752-2.597 5.581-.347.769-.693 1.557-.885 2.372-.348 1.479-.203 2.9 1.016 3.989 1.073.958 2.331 1.199 3.687.721 1.948-.687 2.909-2.748 2.078-4.982-.958-2.577-2.161-5.062-3.299-7.681m29.166.737c-1.147 2.528-2.189 4.775-3.187 7.042-.464 1.055-.647 2.18-.338 3.313.52 1.905 2.395 2.982 4.331 2.537 1.922-.441 3.157-2.395 2.652-4.44-.715-2.907-2.456-5.394-3.458-8.452M21.05 59.583c-1.175 2.65-2.265 5.076-3.324 7.516-.25.577-.333 1.212-.333 1.846 0 1.792 1.355 3.369 3.098 3.611 1.787.249 3.5-.834 3.988-2.575.317-1.132.126-2.252-.333-3.31-.998-2.298-2.148-4.529-3.096-7.088m5.427-18.519c-1.197 2.668-2.314 5.066-3.343 7.502a4.34 4.34 0 0 0-.18 2.864c.527 1.891 2.465 3.021 4.318 2.553 1.95-.493 3.177-2.394 2.682-4.418-.717-2.925-2.471-5.427-3.477-8.501m60.887-7.81c0-1.256-.004-2.511.002-3.766.002-.456-.132-.872-.625-.889-.541-.018-.718.416-.719.9-.005 2.447-.009 4.895-.002 7.343.001.464.127.937.689.936.579-.001.658-.474.657-.947q-.003-1.788-.002-3.577M67.063 2.223c-.417-.011-.667.091-.762.413-.148.502.165.748.542.966 2.064 1.189 4.125 2.385 6.189 3.572.443.255.957.555 1.299-.067.356-.648-.241-.867-.665-1.113a1648 1648 0 0 0-6.023-3.483c-.214-.124-.443-.222-.58-.288m31.722 31.763c-.042-.105-.091-.291-.183-.451-1.22-2.119-2.449-4.233-3.669-6.354-.245-.426-.582-.753-1.058-.49-.562.312-.329.792-.081 1.222 1.178 2.034 2.353 4.072 3.537 6.104.124.212.292.403.465.581.172.178.392.184.607.067.238-.128.385-.317.382-.679m-23.499.756c.352-.063.565-.302.747-.621 1.181-2.068 2.374-4.129 3.567-6.19.247-.426.505-.907-.043-1.227-.525-.307-.854.086-1.11.538-.709 1.255-1.434 2.501-2.153 3.751-.5.868-1.022 1.726-1.496 2.608-.3.562-.041 1.128.488 1.141m-8.163-8.431c.081-.038.312-.127.525-.248.871-.494 1.735-.999 2.603-1.499 1.22-.702 2.446-1.394 3.656-2.112.363-.215.689-.527.392-.997-.273-.431-.667-.388-1.063-.147-.053.032-.115.05-.169.081q-3.047 1.762-6.09 3.531a3.6 3.6 0 0 0-.526.382c-.229.194-.2.469-.11.696.099.249.335.362.782.313m40.031-.619c-.056-.387-.332-.574-.64-.751-2.063-1.188-4.124-2.382-6.186-3.573-.436-.252-.929-.439-1.231.1-.272.486.101.8.516 1.039 2.063 1.188 4.121 2.387 6.186 3.571.211.121.46.224.698.241.41.03.632-.213.657-.627M99.719 7.476c.157-.07.393-.153.606-.276 2.066-1.188 4.125-2.389 6.194-3.574.442-.254.87-.55.553-1.095-.317-.546-.801-.309-1.229-.061q-3.096 1.788-6.19 3.581c-.188.109-.383.229-.525.388-.183.206-.166.478-.042.709.107.202.316.294.633.328m5.92 7.481c1.196 0 2.393-.005 3.588.002.508.003 1.008-.047.987-.703-.019-.575-.471-.653-.95-.652-2.424.006-4.848.011-7.271-.004-.534-.003-1.015.125-1.004.708.009.52.463.664.968.655 1.227-.02 2.455-.006 3.682-.006m-37.796-.015c1.197 0 2.394-.003 3.59.001.477.001.947-.077.943-.661-.004-.572-.466-.67-.944-.67q-3.637.003-7.275-.003c-.49-.002-.947.144-.947.674 0 .533.445.673.948.665 1.228-.017 2.457-.006 3.685-.006"/><path fill="#99caee" d="M49.456 98.016c.583.676.762 1.564 1.23 2.312 2.304 3.677 5.596 5.837 9.839 6.633 5.789 1.087 12.458-2.691 14.732-8.273 1.733-4.253 1.391-8.336-.722-12.328-.407-.771-.948-1.471-1.426-2.203.194-.103.393-.197.582-.309 8.316-4.854 16.626-9.721 24.949-14.563 4.969-2.892 9.959-5.748 14.94-8.62v21.733c-.196.094-.399.176-.586.284-15.335 8.917-30.673 17.828-45.996 26.765-2.314 1.35-4.697 2.587-6.905 4.117q-15.183.01-30.364.014c-2.294.001-4.589-.018-6.883-.027.184-.322.535-.411.825-.58 5.293-3.083 10.586-6.167 15.885-9.241 3.294-1.915 6.599-3.811 9.9-5.714"/><path fill="#818181" d="M113.579 86.932v26.646q-17.687.001-35.375-.001c-3.458-.001-6.917-.015-10.375-.022.181-.121.355-.252.543-.361 10.639-6.192 21.277-12.387 31.919-18.573 4.425-2.572 8.859-5.127 13.288-7.689"/><path fill="#6185a2" d="M55.511 80.82c.093.312 0 .496-.291.691-5.423 3.653-7.305 8.744-6.085 15.083.011.059-.013.123-.021.186-2.202 1.26-4.413 2.506-6.605 3.782-7.418 4.319-14.83 8.65-22.245 12.978-.376.013-.752.036-1.128.036q-9.473.002-18.946.002v-.756c.344.022.577-.218.841-.371 14.794-8.606 29.583-17.22 44.378-25.823 3.358-1.952 6.735-3.872 10.102-5.808"/><path fill="#040507" d="M113.579 86.932c-4.429 2.563-8.863 5.117-13.287 7.688-10.643 6.187-21.28 12.381-31.919 18.573-.188.109-.362.24-.543.361l-7.738.008c2.208-1.53 4.591-2.768 6.905-4.117 15.323-8.937 30.661-17.848 45.996-26.765.187-.108.391-.19.586-.284z"/><path fill="#0a0e10" d="M113.579 60.663c-4.98 2.872-9.971 5.729-14.94 8.62-8.323 4.843-16.633 9.709-24.949 14.563-.189.111-.388.206-.582.309-.351-.279-.685-.573-.918-.964.119-.035.25-.047.354-.107 8.262-4.812 16.518-9.635 24.792-14.427.596-.346.407-.611.168-1.01-1.483-2.475-3.013-4.924-4.404-7.449-.488-.886-.832-.867-1.607-.412-7.165 4.206-14.352 8.375-21.532 12.555-.172-2.931-.172-2.93 2.291-4.362 6.374-3.709 12.755-7.404 19.108-11.149.691-.407.913-.237 1.254.357 1.881 3.27 3.817 6.506 5.684 9.782.4.702.713.823 1.418.389a192 192 0 0 1 6.466-3.795c.579-.324.562-.563.257-1.069-1.958-3.256-3.857-6.546-5.841-9.785-.504-.823-.355-1.105.464-1.57 4.2-2.382 8.35-4.854 12.517-7.294v3.213c-.093.009-.203-.011-.276.032-3.497 2.031-6.984 4.078-10.49 6.094-.548.315-.269.583-.082.9 1.312 2.219 2.622 4.439 3.939 6.654.351.591.663 1.573 1.11 1.645.558.09 1.228-.594 1.864-.915 1.332-.672 2.494-1.656 3.934-2.126z"/><path fill="#0b0c0c" d="M55.511 80.82c-3.368 1.936-6.745 3.855-10.102 5.808-14.795 8.604-29.584 17.217-44.378 25.823-.264.153-.497.394-.841.371v-3.023c.378.013.629-.262.918-.43C18.986 98.974 36.86 88.572 54.735 78.174c.236-.138.441-.357.776-.348z"/><path fill="#6084a1" d="M113.579 59.341c-1.44.47-2.603 1.454-3.934 2.126-.636.321-1.307 1.005-1.864.915-.447-.071-.759-1.054-1.11-1.645-1.318-2.215-2.627-4.436-3.939-6.654-.187-.317-.466-.585.082-.9 3.505-2.016 6.993-4.063 10.49-6.094.073-.043.183-.023.276-.032z"/><path fill="#261d1f" d="M68.59 60.476c0 6.991.008 13.983-.014 20.975-.001.633.176.999.73 1.344 4.813 2.993 6.925 9.023 5.053 14.318-1.956 5.531-7.296 8.879-13.064 8.188-5.242-.628-9.354-4.373-10.568-9.628-1.12-4.843 1.115-10.153 5.462-12.873.553-.345.734-.71.733-1.345-.018-13.89-.016-27.778-.012-41.668.001-2.698 1.281-4.635 3.556-5.277a8.3 8.3 0 0 1 4.569-.001c2.245.634 3.551 2.574 3.553 5.181.006 6.927.002 13.856.002 20.786m-6.807-19.265c.626-.097.791.172.788.785-.007 1.831.02 1.831-1.815 1.832q-.424-.001-.85.005c-.157.004-.365.018-.372.199-.022.627-.128 1.291.038 1.871.122.425.72.164 1.104.195.438.036.881.023 1.322.005.392-.018.534.122.57.535.168 1.973.183 1.971-1.787 1.972-.283.001-.567 0-.85.006-.157.003-.371.013-.38.192-.03.626-.138 1.284.015 1.87.12.462.715.221 1.093.225 2.095.023 2.081.011 1.91 2.048-.035.414-.175.548-.568.536-.66-.018-1.322.006-1.983-.007-.339-.007-.532.468-.532.468s-.115 1.817 1.548 1.817c.346 0 .692.007 1.039 0 .289-.007.435.072.492.406.326 1.897.083 2.207-1.812 2.208-.126 0-.255.019-.377-.003-1.047-.188-.879.532-.886 1.153-.007.641-.118 1.295.909 1.143.523-.078 1.069.001 1.604-.019.396-.014.532.129.566.539.165 1.969.179 1.968-1.789 1.97-.094 0-.191.015-.283-.003-.872-.162-1.024.251-1.02 1.047.032 5.981-.023 11.964.05 17.944.016 1.254-.308 1.917-1.469 2.505-3.766 1.906-5.729 6.426-4.838 10.512.967 4.435 5.223 7.979 10.131 7.675 4.924-.305 9.257-4.506 9.145-9.795-.085-4.002-2.051-6.979-5.676-8.754-.648-.317-.824-.675-.822-1.358.024-7.241.015-14.482.015-21.723q0-10.579-.002-21.156c0-.409.005-.821-.042-1.227-.114-1.001-1.084-1.936-2.087-1.985a21 21 0 0 0-2.266 0c-1.499.091-2.268 1.364-2.104 3.682"/><path fill="#0b0c0c" d="M27.972 38.776c-5.89 0-11.785-.146-17.668.049-4.257.141-7.25-2.798-8.252-6.104-1.688-5.572.355-11.938 5.051-15.404 3.42-2.524 7.787-2.599 11.249-.159.385.271.627.32 1.063.076 1.834-1.025 3.791-1.484 5.89-1.018.651.146.528-.302.564-.662.367-3.667 1.921-6.692 5.229-8.44 3.461-1.829 7.166-2.348 10.695-.229 3.134 1.881 4.898 4.729 4.7 8.527-.037.711.102 1.057.805 1.375 2.594 1.174 3.99 3.723 3.628 6.514-.068.529.154.717.518.955 1.866 1.227 3.141 2.891 3.555 5.112.621 3.335-1.155 6.688-4.265 8.27-1.641.835-3.364 1.15-5.187 1.145-5.859-.018-11.717-.007-17.575-.007m1.063-18.509c-1.053-.407-1.979-.768-2.907-1.123-1.972-.758-3.856-.583-5.662.52-1.741 1.063-1.72 1.023-3.345-.152-2.453-1.775-5.048-2.074-7.738-.536-4.903 2.804-6.53 9.564-4.265 14.26.837 1.736 2.235 2.891 4.282 2.893 12.092.014 24.184.004 36.276.011 1.336.001 2.617-.188 3.816-.813 2.928-1.525 3.882-4.841 2.102-7.374-.647-.921-1.533-1.559-2.545-2.031-1.381-.646-1.381-.647-.916-2.062.229-.696.338-1.396.148-2.125-.515-1.978-1.866-2.909-4.413-3.025-1.045-.048-1.071-.059-.66-1.034.583-1.386.944-2.787.51-4.287-.979-3.388-3.583-5.196-7.46-5.069-6.038.197-8.471 5.567-7.655 9.669.145.721.275 1.447.432 2.278"/><path fill="#6084a1" d="M69.961 72.341c7.181-4.18 14.367-8.349 21.532-12.555.775-.455 1.119-.474 1.607.412 1.391 2.525 2.921 4.975 4.404 7.449.238.398.428.664-.168 1.01-8.274 4.792-16.53 9.615-24.792 14.427-.104.061-.235.072-.354.107-.674-.503-1.341-1.018-2.027-1.506-.255-.182-.236-.422-.235-.669q.015-4.337.033-8.675m11.207 4.018c-.335-.594-.523-1.031-.802-1.399-.475-.628-.319-.949.351-1.327 3.55-2.003 7.072-4.056 10.604-6.093 1.504-.867 1.471-.85.607-2.387-.344-.613-.632-.582-1.167-.27-3.493 2.042-7.003 4.053-10.506 6.075-1.61.93-1.608.931-2.583-.723-.089-.151-.193-.294-.369-.559-1.208 2.091-2.366 4.09-3.518 6.091-.222.386-.101.592.352.592z"/><path fill="#0b0c0c" d="M74.424 14.266c.016-6.796 5.5-12.274 12.286-12.273 6.804.001 12.348 5.57 12.312 12.367-.036 6.733-5.654 12.302-12.361 12.252-6.775-.049-12.253-5.578-12.237-12.346m2.645.013c-.016 5.273 4.326 9.671 9.584 9.708 5.211.036 9.708-4.396 9.727-9.587.019-5.355-4.428-9.854-9.698-9.812-5.279.044-9.597 4.397-9.613 9.691"/><path fill="#0a0e10" d="m22.845 113.549-2.58-.009c7.415-4.327 14.826-8.658 22.245-12.978 2.192-1.276 4.403-2.522 6.605-3.782-.059.459.425.77.34 1.235-3.3 1.903-6.605 3.8-9.901 5.712-5.298 3.074-10.591 6.158-15.885 9.241-.29.17-.64.259-.824.581"/><path fill="#282629" d="M11.491 48.179c1.138 2.619 2.341 5.104 3.299 7.681.831 2.234-.13 4.296-2.078 4.982-1.355.479-2.614.237-3.687-.721-1.219-1.089-1.363-2.511-1.016-3.989.192-.815.538-1.604.885-2.372.824-1.829 1.689-3.639 2.597-5.581m-.007 3.153c-.603 1.266-1.095 2.275-1.566 3.295-.37.8-.688 1.618-.769 2.511-.139 1.53.957 2.695 2.486 2.626 1.588-.071 2.518-1.421 2.098-3.187-.422-1.778-1.434-3.312-2.249-5.245M40.657 48.916c1.001 3.058 2.743 5.545 3.458 8.451.504 2.046-.73 3.999-2.652 4.44-1.937.445-3.812-.632-4.331-2.537-.309-1.133-.125-2.258.338-3.313.998-2.266 2.04-4.513 3.187-7.041m-.069 3.362c-.554 1.146-1.005 2.038-1.418 2.947-.427.94-.851 1.884-.902 2.945-.083 1.729 1.396 2.938 3.029 2.462 1.243-.362 1.909-1.579 1.55-3.104-.424-1.802-1.429-3.366-2.259-5.25M21.05 59.583c.947 2.559 2.098 4.79 3.096 7.088.46 1.058.651 2.178.333 3.31-.488 1.741-2.201 2.824-3.988 2.575-1.742-.242-3.098-1.819-3.098-3.611 0-.634.082-1.269.333-1.846 1.059-2.44 2.149-4.866 3.324-7.516m-2.421 9.274c-.03 1.491.986 2.493 2.469 2.433 1.401-.057 2.328-1.163 2.2-2.602-.128-1.448-.877-2.663-1.469-3.935-.256-.551-.383-1.508-.878-1.516-.514-.008-.629.953-.89 1.492-.636 1.316-1.386 2.604-1.432 4.128M26.477 41.064c1.006 3.073 2.76 5.575 3.477 8.501.496 2.024-.731 3.925-2.682 4.418-1.853.469-3.791-.662-4.318-2.553a4.33 4.33 0 0 1 .18-2.864c1.029-2.435 2.146-4.834 3.343-7.502m-.063 3.331c-.506 1.037-.933 1.866-1.318 2.714-.454.999-.938 1.988-.997 3.12-.076 1.441.891 2.539 2.278 2.553 1.445.015 2.435-.99 2.378-2.446-.016-.404-.065-.825-.198-1.203-.547-1.566-1.341-3.019-2.143-4.738M87.365 33.254q-.001 1.788.001 3.577c.001.474-.078.946-.657.947-.562.001-.688-.472-.689-.936-.007-2.448-.003-4.896.002-7.343.001-.484.178-.918.719-.9.493.017.627.433.625.889-.006 1.255-.002 2.51-.001 3.766"/><path fill="#252326" d="M67.063 2.223c.137.066.366.164.58.287q3.015 1.735 6.023 3.483c.423.246 1.021.465.665 1.113-.342.622-.855.322-1.299.067-2.065-1.188-4.125-2.383-6.189-3.572-.376-.218-.689-.464-.542-.966.095-.322.345-.423.762-.412"/><path fill="#282629" d="M98.785 33.986c.003.361-.144.551-.381.679-.215.116-.435.11-.607-.067a3.2 3.2 0 0 1-.465-.581c-1.185-2.031-2.359-4.069-3.537-6.104-.249-.43-.481-.91.081-1.222.476-.263.813.064 1.058.49 1.22 2.12 2.449 4.234 3.669 6.354.091.16.14.346.182.451"/><path fill="#252326" d="M75.286 34.742c-.529-.013-.789-.579-.487-1.141.474-.883.996-1.74 1.496-2.608.719-1.25 1.444-2.496 2.153-3.751.255-.452.585-.845 1.11-.538.548.319.29.801.043 1.227-1.193 2.062-2.387 4.122-3.567 6.19-.183.319-.396.558-.748.621M67.123 26.311c-.447.05-.683-.063-.781-.313-.09-.228-.119-.502.11-.696.165-.14.339-.273.526-.382 2.028-1.181 4.059-2.355 6.09-3.531.054-.031.116-.049.169-.081.396-.24.79-.283 1.063.147.297.47-.029.782-.392.997-1.21.719-2.437 1.41-3.656 2.112-.868.5-1.732 1.005-2.603 1.499-.214.121-.445.209-.526.248M107.154 25.692c-.025.414-.248.656-.657.627-.238-.018-.487-.12-.698-.241-2.065-1.185-4.123-2.384-6.186-3.571-.415-.239-.788-.553-.516-1.039.303-.539.795-.352 1.231-.1 2.062 1.191 4.122 2.385 6.186 3.573.308.177.585.365.64.751M99.719 7.476c-.317-.033-.526-.126-.634-.328-.124-.231-.14-.503.042-.709.142-.159.337-.278.525-.388q3.094-1.793 6.19-3.581c.428-.248.912-.485 1.229.061.317.545-.11.841-.553 1.095-2.068 1.186-4.128 2.386-6.194 3.574-.212.122-.448.205-.605.276"/><path fill="#211a1c" d="M105.639 14.957c-1.228 0-2.456-.014-3.683.006-.504.009-.958-.136-.968-.655-.01-.583.47-.711 1.004-.708 2.424.015 4.847.01 7.271.004.479-.001.931.077.95.652.021.656-.479.706-.987.703-1.194-.007-2.391-.002-3.587-.002M67.843 14.942c-1.229 0-2.457-.012-3.685.006-.503.008-.948-.132-.948-.665 0-.53.457-.676.947-.674q3.637.006 7.275.003c.479 0 .94.098.944.67.004.584-.466.662-.943.661-1.196-.004-2.393-.001-3.59-.001"/><path fill="#e7461f" d="M59.471 40.526c-.164-2.317.645-3.591 2.144-3.682a21 21 0 0 1 2.266 0c1.002.05 1.973.984 2.087 1.985.046.405.042.817.042 1.227q.002 10.578.002 21.156c0 7.24.009 14.481-.015 21.723-.002.684.173 1.041.822 1.358 3.625 1.774 5.591 4.752 5.676 8.754.113 5.289-4.221 9.49-9.145 9.795-4.909.304-9.164-3.24-10.131-7.675-.891-4.086 1.073-8.605 4.838-10.512 1.161-.588 1.485-1.251 1.469-2.505-.074-5.98-.023-11.963-.055-17.944m4.956 11.572v-7.465c0-2.369 0-2.335-2.407-2.379-.792-.015-.983.214-.979.992.034 5.89 0 11.779.041 17.669.006.778-.248 1.045-.951 1.281-3.923 1.318-6.01 5.679-4.701 9.704 1.256 3.864 5.555 6.125 9.423 4.956 3.321-1.005 5.547-3.86 5.624-7.216.079-3.476-1.981-6.354-5.416-7.525-.498-.17-.652-.42-.647-.946.027-3.023.012-6.047.013-9.071"/><path fill="#e1e2e7" d="M29.035 20.267c-.156-.831-.287-1.557-.431-2.28-.815-4.102 1.617-9.472 7.655-9.669 3.877-.127 6.481 1.682 7.46 5.069.434 1.5.073 2.901-.51 4.287-.411.976-.385.986.66 1.034 2.546.116 3.898 1.048 4.413 3.025.19.729.081 1.429-.148 2.125-.466 1.414-.466 1.416.916 2.062 1.012.473 1.898 1.11 2.545 2.031 1.78 2.533.826 5.849-2.102 7.374-1.2.625-2.48.813-3.816.813-12.093-.007-24.185.003-36.277-.011-2.047-.002-3.444-1.156-4.282-2.893-2.266-4.695-.638-11.456 4.265-14.26 2.689-1.538 5.285-1.239 7.738.536 1.625 1.176 1.604 1.215 3.345.152 1.806-1.103 3.69-1.277 5.662-.52.928.357 1.854.717 2.907 1.125"/><path fill="#211a1c" d="m81.168 76.359-7.032.001c-.452 0-.573-.206-.352-.592 1.152-2.001 2.31-4 3.518-6.091.176.265.28.407.369.559.975 1.653.973 1.652 2.583.723 3.503-2.022 7.014-4.033 10.506-6.075.535-.313.823-.344 1.167.27.864 1.537.897 1.52-.607 2.387-3.532 2.037-7.054 4.09-10.604 6.093-.67.378-.826.699-.351 1.327.281.367.468.805.803 1.398"/><path fill="#fbe009" d="M77.069 14.279c.016-5.294 4.334-9.647 9.613-9.69 5.27-.043 9.717 4.456 9.698 9.812-.019 5.19-4.516 9.623-9.727 9.587-5.258-.038-9.6-4.435-9.584-9.709"/><path fill="#dedfe4" d="M11.484 51.332c.815 1.933 1.827 3.467 2.249 5.245.419 1.766-.51 3.115-2.098 3.187-1.529.069-2.625-1.096-2.486-2.626.081-.893.399-1.711.769-2.511.471-1.02.963-2.029 1.566-3.295M40.588 52.278c.83 1.884 1.835 3.447 2.259 5.25.359 1.525-.307 2.742-1.55 3.104-1.632.477-3.112-.733-3.029-2.462.051-1.062.475-2.005.902-2.945.413-.909.865-1.8 1.418-2.947M18.628 68.857c.046-1.524.797-2.813 1.433-4.127.261-.539.375-1.5.89-1.492.495.008.622.965.878 1.516.591 1.271 1.34 2.486 1.469 3.935.128 1.438-.799 2.545-2.2 2.602-1.483.06-2.499-.942-2.47-2.434M26.414 44.395c.803 1.72 1.596 3.173 2.144 4.737.132.378.182.799.198 1.203.057 1.456-.933 2.461-2.378 2.446-1.388-.014-2.354-1.111-2.278-2.553.06-1.132.543-2.121.997-3.12.384-.847.811-1.676 1.317-2.713"/><path fill="#211a1c" d="M64.427 75.778c0 3.023.014 6.048-.014 9.071-.005.526.149.776.647.946 3.435 1.171 5.495 4.05 5.416 7.525-.076 3.355-2.302 6.211-5.624 7.216-3.868 1.169-8.167-1.092-9.423-4.956-1.309-4.025.778-8.386 4.701-9.704.704-.236.957-.503.951-1.281-.041-5.89-.007-11.779-.041-17.669-.004-.778.187-1.007.979-.992 2.407.044 2.407.01 2.407 2.379zm.341 20.001c1.542.003 2.92-1.057 3.393-2.553.503-1.593-.096-3.387-1.452-4.341-1.218-.857-2.898-.922-3.88-.148 2.208 1.669 3.164 4.013 1.939 7.042"/><path fill="#fefefe" d="M64.768 95.779c1.225-3.029.269-5.373-1.939-7.042.982-.773 2.662-.709 3.88.148 1.356.954 1.956 2.748 1.452 4.341-.473 1.497-1.851 2.556-3.393 2.553"/></g><g fill="#261d1f" fill-rule="evenodd" clip-rule="evenodd"><path d="M59.176 55.765h3.469v2.547h-3.469zM59.176 60.601h3.469v2.547h-3.469zM59.176 50.905h3.469v2.547h-3.469zM59.176 46.093h3.469v2.547h-3.469zM59.176 41.21h3.469v2.547h-3.469z"/></g></svg>