<svg xmlns="http://www.w3.org/2000/svg" xml:space="preserve" width="113.39" height="113.39" viewBox="0 0 113.39 113.39"><g fill-rule="evenodd" clip-rule="evenodd"><path fill="#fffeff" d="M.379 109.805C.379 73.613.381 37.42.361 1.228c0-.708.16-.867.867-.867q55.751.032 111.502 0c.707 0 .868.159.867.867-.024 14.307-.018 28.614-.018 42.921-.143.048-.299.073-.427.147-9.856 5.728-19.707 11.465-29.572 17.176-.679.393-.656.74-.317 1.335 1.875 3.293 3.708 6.61 5.596 9.896.327.57.246.799-.313 1.111a157 157 0 0 0-5.845 3.404c-.666.409-.972.33-1.342-.347-1.802-3.293-3.674-6.547-5.454-9.851-.39-.725-.644-.703-1.29-.327a91020 91020 0 0 1-73.402 42.728c-.261.153-.487.407-.834.384m40.116-92.973c-.106.022-.169.053-.226.045a11 11 0 0 1-.741-.132c-3.461-.754-6.732-.163-9.824 1.472-.614.325-1.011.307-1.584-.071-2.513-1.663-5.304-2.561-8.313-2.596-4.401-.051-8.184 1.569-11.467 4.461-5.421 4.775-7.296 12.543-4.588 19.123 1.651 4.01 5.937 6.884 10.269 6.884 18.927 0 37.854.006 56.781-.006 3.445-.002 6.692-.727 9.64-2.647 3.688-2.402 5.305-6.54 3.927-10.508-.913-2.628-2.825-4.406-5.236-5.65-.712-.367-.979-.723-.838-1.538.421-2.438-.43-4.486-2.111-6.232-1.206-1.254-2.662-2.067-4.352-2.465-.458-.107-.752-.192-.563-.843.261-.899.31-1.856.138-2.804-.946-5.223-4.231-8.432-9.046-10.11-3.439-1.199-7-.844-10.498-.044-3.438.786-6.348 2.462-8.513 5.303-1.882 2.467-2.83 5.266-2.855 8.358M31.79 58.613c.447-.026.67.219.931.366.927.522 1.849 1.056 2.773 1.583.365.208.745.258.998-.131.287-.44.032-.768-.345-1.012-.236-.152-.487-.282-.729-.425l-2.925-1.714c.372-.223.611-.37.854-.511.92-.534 1.845-1.063 2.764-1.6.387-.227.666-.557.408-.999-.257-.442-.683-.362-1.077-.147-.247.134-.484.287-.729.427-.936.534-1.873 1.065-2.924 1.663v-1.378c0-.942.01-1.885-.008-2.826-.008-.43-.117-.855-.666-.839-.529.017-.642.423-.661.861-.011.251-.002.503-.002.754v3.427c-1.19-.685-2.26-1.312-3.341-1.917-.453-.254-1.008-.67-1.375.008-.32.595.235.867.682 1.124 1.092.626 2.176 1.267 3.345 1.949-.382.231-.646.398-.915.554-.84.485-1.688.959-2.523 1.451-.412.242-.892.534-.589 1.093.303.561.785.348 1.217.084.267-.163.543-.312.815-.467l2.685-1.541v1.588c.001.88-.011 1.759.009 2.639.01.436.172.855.682.832.492-.022.65-.419.645-.877-.003-.283.001-.565.001-.849zm15.53 7.211c-1.307.755-2.47 1.423-3.628 2.1-.383.225-.669.559-.425 1.002s.664.391 1.063.159q.325-.19.651-.376c.961-.546 1.924-1.09 2.992-1.694 0 1.467-.007 2.754.004 4.04.004.49.087 1.017.723.986.583-.028.606-.531.605-.991a606 606 0 0 1 0-3.016c.002-1.063.004-1.063.966-.507.732.423 1.453.865 2.2 1.26.489.258 1.089.894 1.543.146.463-.761-.374-.976-.849-1.264-1.008-.609-2.033-1.191-3.141-1.837.367-.229.62-.395.881-.546.921-.533 1.848-1.057 2.766-1.596.35-.205.619-.519.413-.929-.229-.455-.656-.417-1.062-.222-.225.107-.434.248-.651.372l-2.906 1.669c-.257-.355-.151-.677-.155-.976-.017-1.099-.001-2.198-.02-3.297-.007-.373-.16-.676-.603-.702-.446-.026-.616.28-.688.632-.055.272-.026.563-.027.846-.002 1.141-.001 2.281-.001 3.572l-3.479-2.004c-.43-.248-.935-.466-1.228.076-.287.533.153.839.595 1.089 1.115.633 2.217 1.285 3.461 2.008m-37.001.062c-1.175.678-2.232 1.283-3.284 1.897-.454.266-1.106.531-.757 1.179.353.653.914.256 1.378-.007q.326-.187.651-.375l2.667-1.526c0 1.389-.004 2.611.002 3.833.002.53-.061 1.186.701 1.188.746.001.616-.655.621-1.137.013-1.243.004-2.486.004-3.91 1.133.654 2.111 1.247 3.118 1.788.508.272 1.153.938 1.613.133.431-.754-.436-.951-.906-1.238-.993-.605-2.006-1.181-3.124-1.834 1.292-.75 2.455-1.418 3.61-2.099.367-.216.719-.5.444-.977-.284-.492-.706-.407-1.136-.154-.972.571-1.963 1.109-2.922 1.702-.563.348-.732.267-.708-.413.041-1.16.009-2.324.009-3.486 0-.427-.163-.771-.615-.797-.459-.026-.646.331-.698.731-.036.278-.012.564-.012.848v3.463c-.377-.207-.593-.319-.803-.44q-1.341-.776-2.683-1.554c-.425-.245-.918-.485-1.217.077-.286.539.139.859.584 1.098.22.118.434.25.65.376.912.528 1.824 1.059 2.813 1.634m16.825 14.529c1.24-.72 2.373-1.371 3.499-2.035.409-.241.893-.513.53-1.089-.348-.554-.805-.284-1.227-.039-.919.536-1.854 1.048-2.758 1.609-.577.359-.785.317-.753-.427.047-1.129.008-2.262.012-3.392.002-.46-.141-.861-.646-.861-.494.001-.658.409-.677.855-.012.282-.003.565-.003.848v3.358c-1.311-.752-2.475-1.417-3.635-2.088-.396-.228-.809-.305-1.064.135-.216.373-.039.732.321.969.209.137.432.253.649.378l3.079 1.776c-1.3.754-2.487 1.437-3.669 2.129-.397.232-.625.582-.354 1.013.247.392.65.306 1.009.13.252-.123.486-.284.731-.425l2.934-1.673c0 1.402-.005 2.65.002 3.897.003.504-.031 1.114.668 1.129.74.016.652-.615.654-1.109.007-1.265.002-2.53.002-3.944 1.22.699 2.272 1.304 3.327 1.904.458.26.996.688 1.395.06.427-.671-.255-.909-.691-1.17-1.066-.634-2.143-1.247-3.335-1.938m43.422-24.194c0 1.5.002 2.82-.001 4.14-.001.49.136.938.692.922.485-.014.646-.422.63-.886-.009-.282-.001-.565-.001-.849v-3.332c1.247.717 2.331 1.343 3.417 1.965.436.249.931.609 1.295-.017.366-.629-.203-.882-.631-1.134-1.1-.646-2.208-1.28-3.397-1.968 1.218-.709 2.321-1.35 3.422-1.994.409-.239.93-.489.622-1.067-.336-.631-.853-.319-1.295-.067-1.104.627-2.202 1.266-3.433 1.975 0-1.255.034-2.346-.013-3.433-.025-.592.338-1.563-.627-1.584-.984-.022-.645.952-.667 1.543-.042 1.109-.012 2.222-.012 3.477-1.263-.729-2.366-1.373-3.475-2.005-.418-.239-.906-.499-1.232.057-.33.563.138.837.561 1.082 1.121.649 2.239 1.303 3.471 2.021l-3.437 1.986c-.456.264-.949.575-.568 1.165.344.532.821.228 1.238-.014 1.103-.64 2.21-1.274 3.441-1.983"/><path fill="#99caee" d="M60.375 113.578H23.019c.123-.379.502-.435.784-.6 2.773-1.627 5.554-3.244 8.333-4.862Q61.48 91.039 90.827 73.967c7.581-4.41 15.168-8.811 22.752-13.215v21.696c-.115.045-.239.076-.345.137a54514 54514 0 0 0-52.377 30.486c-.171.1-.602.082-.482.507"/><path fill="#6185a2" d="M20.755 113.578c-6.543 0-13.086-.012-19.628.02-.65.003-.886-.139-.748-.774.524-.051.902-.407 1.328-.655 24.404-14.193 48.807-28.392 73.201-42.604.536-.313.785-.354 1.117.257a364 364 0 0 0 4.501 8.047c.293.509.037.64-.299.835-1.703.994-3.403 1.993-5.108 2.984C57.235 92.09 39.35 102.49 21.475 112.907c-.266.156-.768.147-.72.671m43.761-27.744c-.115-.533-.439-.969-.741-1.393-.46-.649-.291-.944.376-1.32 3.656-2.06 7.283-4.173 10.918-6.271 1.121-.647 1.064-.624.492-1.789-.417-.848-.814-1.14-1.647-.477-.484.385-1.078.633-1.621.946-3.174 1.831-6.356 3.649-9.515 5.506-.565.332-.859.301-1.129-.316-.216-.492-.538-.938-.886-1.53l-3.777 6.63c.111.189.294.211.488.211q3.434.003 6.866.002c.121-.001.263-.004.176-.199"/><path fill="#818181" d="M113.579 86.977c0 8.615-.009 17.231.019 25.847.002.646-.127.774-.773.773-14.968-.023-29.935-.019-44.903-.019.201-.141.394-.298.605-.421 10.594-6.17 21.188-12.34 31.786-18.502 4.417-2.568 8.844-5.12 13.266-7.678"/><path fill="#080b0d" d="M20.755 113.578c-.048-.524.454-.516.72-.671 17.875-10.417 35.76-20.817 53.644-31.22 1.705-.991 3.405-1.99 5.108-2.984.335-.195.592-.326.299-.835a360 360 0 0 1-4.501-8.047c-.332-.61-.581-.569-1.117-.257-24.394 14.212-48.796 28.41-73.201 42.604-.426.248-.803.604-1.328.655v-3.019c.347.023.573-.23.834-.383a86540 86540 0 0 0 73.402-42.728c.646-.376.899-.397 1.29.327 1.779 3.304 3.652 6.558 5.454 9.851.371.677.677.756 1.342.347a153 153 0 0 1 5.845-3.404c.559-.313.64-.541.313-1.111-1.887-3.286-3.72-6.604-5.596-9.896-.339-.595-.362-.942.317-1.335 9.866-5.711 19.716-11.448 29.572-17.176.128-.074.284-.1.427-.147v3.02c-.709.186-1.273.652-1.89 1.01-8.583 4.985-17.156 9.988-25.742 14.968-.557.323-.762.528-.375 1.189 1.443 2.458 2.858 4.937 4.175 7.463.467.896.861.904 1.63.447 3.392-2.015 6.81-3.986 10.215-5.979 3.998-2.339 7.992-4.683 11.987-7.024v1.51c-7.584 4.404-15.171 8.805-22.752 13.215q-29.346 17.073-58.691 34.149c-2.779 1.618-5.56 3.235-8.333 4.862-.281.165-.661.221-.784.6z"/><path fill="#6185a2" d="M113.579 59.242c-3.996 2.342-7.99 4.686-11.987 7.024-3.405 1.992-6.823 3.964-10.215 5.979-.769.457-1.163.449-1.63-.447-1.316-2.526-2.732-5.005-4.175-7.463-.388-.661-.183-.866.375-1.189 8.586-4.979 17.159-9.982 25.742-14.968.617-.357 1.181-.824 1.89-1.01z"/><path fill="#080b0d" d="M113.579 86.977c-4.422 2.559-8.849 5.11-13.266 7.679q-15.896 9.245-31.786 18.502c-.212.123-.404.28-.605.421h-7.547c-.12-.425.311-.407.482-.507a54861 54861 0 0 1 52.377-30.486c.106-.061.229-.092.345-.137zM40.495 16.832c.024-3.092.973-5.891 2.854-8.359 2.165-2.841 5.075-4.517 8.513-5.303 3.499-.8 7.059-1.155 10.498.044 4.815 1.679 8.101 4.888 9.046 10.11a6.1 6.1 0 0 1-.138 2.804c-.189.65.105.735.563.843 1.689.397 3.146 1.211 4.352 2.465 1.681 1.746 2.532 3.794 2.111 6.232-.141.815.126 1.171.838 1.538 2.412 1.244 4.323 3.022 5.236 5.65 1.378 3.968-.239 8.105-3.927 10.508-2.948 1.921-6.195 2.646-9.64 2.647-18.927.012-37.854.006-56.781.006-4.332 0-8.618-2.874-10.269-6.884-2.708-6.58-.833-14.348 4.588-19.123 3.283-2.892 7.066-4.512 11.467-4.461 3.009.035 5.8.933 8.313 2.596.573.378.97.396 1.584.071 3.092-1.635 6.363-2.226 9.824-1.472.245.054.493.095.741.132.058.009.121-.022.227-.044m3.791 4.304c-.972-.355-1.806-.626-2.612-.962-3.987-1.659-7.85-1.384-11.52.851-1.03.627-1.839.729-2.714-.124-.154-.15-.364-.244-.547-.365-2.953-1.952-6.157-2.669-9.67-2.074C8.8 19.888 3.192 29.116 5.857 37.209c1.218 3.701 4.567 6.119 8.47 6.119 18.798 0 37.596.002 56.394-.003 2.933 0 5.708-.556 8.227-2.194 3.886-2.526 4.358-6.919 1.018-10.113-1.035-.99-2.277-1.642-3.605-2.153-1.701-.653-1.704-.667-1.025-2.389.757-1.921.387-3.615-1.006-5.107-1.53-1.639-3.523-2.047-5.644-2.13-1.484-.059-1.563-.113-.875-1.396 1.546-2.878 1.169-5.554-.708-8.093-1.216-1.645-2.802-2.854-4.67-3.7-2.361-1.071-4.855-.934-7.317-.718-3.842.336-7.319 1.604-9.686 4.86-2.005 2.76-2.946 5.79-1.676 9.19.194.52.325 1.066.532 1.754M31.79 58.613v3.171c0 .283-.004.565-.001.849.005.458-.153.854-.645.877-.51.023-.672-.396-.682-.832-.02-.88-.008-1.759-.009-2.639v-1.588l-2.685 1.541c-.272.155-.548.304-.815.467-.432.264-.914.477-1.217-.084-.303-.559.177-.851.589-1.093.836-.492 1.683-.966 2.523-1.451.269-.155.532-.322.915-.554-1.169-.683-2.253-1.323-3.345-1.949-.447-.257-1.001-.529-.682-1.124.366-.678.922-.262 1.375-.008 1.082.605 2.151 1.232 3.341 1.917v-3.427c0-.251-.008-.503.002-.754.019-.438.132-.845.661-.861.549-.017.658.409.666.839.018.941.007 1.884.008 2.826v1.378c1.051-.598 1.988-1.129 2.924-1.663.245-.14.481-.293.729-.427.394-.215.819-.295 1.077.147s-.021.772-.408.999c-.919.537-1.843 1.065-2.764 1.6-.243.141-.482.288-.854.511l2.925 1.714c.243.143.494.272.729.425.377.244.631.571.345 1.012-.253.389-.633.339-.998.131-.924-.527-1.846-1.061-2.773-1.583-.262-.148-.485-.393-.931-.367M47.32 65.824c-1.244-.724-2.346-1.375-3.46-2.006-.442-.25-.882-.556-.595-1.089.292-.542.797-.324 1.228-.076l3.479 2.004c0-1.291-.001-2.432.001-3.572 0-.282-.028-.573.027-.846.071-.352.241-.658.688-.632.443.026.596.329.603.702.019 1.099.003 2.198.02 3.297.004.299-.102.62.155.976l2.906-1.669c.217-.124.426-.265.651-.372.406-.195.833-.233 1.062.222.206.41-.063.724-.413.929-.918.539-1.845 1.063-2.766 1.596-.261.151-.514.317-.881.546 1.107.646 2.133 1.228 3.141 1.837.475.288 1.312.503.849 1.264-.454.747-1.054.111-1.543-.146-.747-.395-1.468-.837-2.2-1.26-.962-.556-.963-.556-.966.507q-.003 1.507 0 3.016c.001.46-.022.963-.605.991-.636.03-.719-.496-.723-.986-.011-1.286-.004-2.573-.004-4.04-1.068.604-2.031 1.148-2.992 1.694q-.326.186-.651.376c-.398.231-.818.284-1.063-.159-.244-.443.042-.777.425-1.002 1.157-.679 2.32-1.347 3.627-2.102M10.319 65.886l-2.813-1.635c-.216-.126-.43-.258-.65-.376-.446-.238-.87-.559-.584-1.098.299-.563.792-.322 1.217-.077q1.342.778 2.683 1.554c.21.121.426.233.803.44v-3.463c0-.283-.024-.569.012-.848.051-.4.239-.758.698-.731.452.025.615.37.615.797 0 1.162.032 2.326-.009 3.486-.023.68.145.761.708.413.959-.593 1.951-1.131 2.922-1.702.43-.253.852-.338 1.136.154.274.477-.078.761-.444.977-1.155.681-2.317 1.349-3.61 2.099 1.118.653 2.131 1.229 3.124 1.834.47.287 1.337.484.906 1.238-.459.806-1.104.14-1.613-.133-1.007-.541-1.985-1.134-3.118-1.788 0 1.424.008 2.667-.004 3.91-.005.481.125 1.138-.621 1.137-.762-.002-.698-.657-.701-1.188-.006-1.222-.002-2.444-.002-3.833l-2.667 1.526q-.325.188-.651.375c-.464.263-1.025.66-1.378.007-.349-.647.303-.913.757-1.179 1.051-.613 2.109-1.219 3.284-1.896M27.144 80.415c1.192.691 2.269 1.304 3.333 1.938.436.261 1.118.499.691 1.17-.399.628-.938.2-1.395-.06-1.055-.601-2.107-1.205-3.327-1.904 0 1.414.005 2.68-.002 3.944-.002.494.086 1.125-.654 1.109-.699-.015-.665-.625-.668-1.129-.007-1.247-.002-2.495-.002-3.897l-2.934 1.673c-.245.141-.479.302-.731.425-.359.176-.762.262-1.009-.13-.271-.431-.042-.78.354-1.013 1.182-.692 2.369-1.375 3.669-2.129l-3.079-1.776c-.217-.125-.44-.241-.649-.378-.36-.236-.538-.596-.321-.969.255-.439.669-.362 1.064-.135 1.161.671 2.325 1.336 3.635 2.088v-3.358c0-.282-.009-.565.003-.848.019-.446.183-.854.677-.855.505 0 .648.401.646.861-.004 1.13.035 2.263-.012 3.392-.031.744.176.786.753.427.904-.562 1.839-1.073 2.758-1.609.422-.245.879-.515 1.227.039.363.576-.122.848-.53 1.089-1.124.664-2.257 1.315-3.497 2.035M70.566 56.221c-1.231.709-2.338 1.344-3.443 1.982-.417.241-.894.546-1.238.014-.381-.59.112-.901.568-1.165l3.437-1.986c-1.232-.718-2.35-1.371-3.471-2.021-.423-.245-.89-.52-.561-1.082.326-.556.814-.296 1.232-.057 1.109.632 2.212 1.275 3.475 2.005 0-1.255-.03-2.367.012-3.477.022-.591-.317-1.565.667-1.543.966.021.602.992.627 1.584.047 1.087.013 2.178.013 3.433 1.231-.709 2.329-1.348 3.433-1.975.442-.252.959-.563 1.295.067.308.578-.213.828-.622 1.067-1.101.645-2.204 1.285-3.422 1.994 1.189.688 2.297 1.321 3.397 1.968.428.252.997.505.631 1.134-.364.626-.859.266-1.295.017-1.086-.622-2.169-1.248-3.417-1.965v3.332c0 .283-.008.566.001.849.016.464-.146.872-.63.886-.556.016-.693-.432-.692-.922.006-1.319.003-2.639.003-4.139M56.986 85.82l3.777-6.63c.348.592.67 1.038.886 1.53.271.617.564.648 1.129.316 3.159-1.856 6.341-3.675 9.515-5.506.542-.313 1.136-.562 1.621-.946.833-.663 1.229-.371 1.647.477.573 1.165.629 1.142-.492 1.789-3.635 2.098-7.262 4.211-10.918 6.271-.667.376-.836.671-.376 1.32.301.424.626.859.741 1.393z"/><path fill="#7d93a6" d="m56.986 85.82 7.53.014c.087.195-.055.198-.176.199q-3.434 0-6.866-.002c-.194 0-.377-.021-.488-.211"/><path fill="#fffeff" d="M44.286 21.136c-.207-.688-.337-1.233-.532-1.754-1.27-3.4-.329-6.431 1.676-9.19 2.367-3.257 5.844-4.524 9.686-4.86 2.462-.216 4.957-.354 7.317.718 1.868.847 3.454 2.056 4.67 3.7 1.877 2.539 2.254 5.215.708 8.093-.689 1.283-.61 1.338.875 1.396 2.121.083 4.114.491 5.644 2.13 1.394 1.492 1.764 3.187 1.006 5.107-.678 1.722-.676 1.735 1.025 2.389 1.329.512 2.57 1.163 3.605 2.153 3.34 3.194 2.868 7.587-1.018 10.113-2.519 1.639-5.294 2.194-8.227 2.194-18.798.005-37.596.003-56.394.003-3.903 0-7.252-2.418-8.47-6.119C3.192 29.116 8.8 19.888 17.224 18.461c3.513-.595 6.717.122 9.67 2.074.183.121.393.215.547.365.875.853 1.684.751 2.714.124 3.67-2.234 7.532-2.51 11.52-.851.805.337 1.638.607 2.611.963"/></g></svg>