<svg xmlns="http://www.w3.org/2000/svg" xml:space="preserve" width="113.39" height="113.39" viewBox="0 0 113.39 113.39"><g fill-rule="evenodd" clip-rule="evenodd"><path fill="#fff" d="M.379 88.108c0-29.023.003-58.046-.018-87.069 0-.707.159-.867.867-.867q55.75.03 111.502 0c.707 0 .871.159.867.867-.03 7.075-.019 14.15-.019 21.225-.105.067-.209.137-.317.2-9.704 5.653-19.4 11.319-29.125 16.935-.871.503-.909.824-.407 1.645 5.407 8.836 10.77 17.698 16.15 26.55.255.419.519.711-.145 1.091-5.463 3.127-10.903 6.296-16.349 9.452-.388-.024-.492-.362-.647-.617a3240 3240 0 0 1-5.521-9.104c-3.512-5.804-7.038-11.601-10.514-17.427-.493-.827-.888-.916-1.667-.401-1.465.966-2.989 1.843-4.489 2.758-1.799 1.021-3.61 2.021-5.393 3.07-1.476.868-3.05 1.573-4.405 2.643-.387-.081-.653.179-.945.348-12.278 7.143-24.553 14.292-36.833 21.432-4.189 2.434-8.393 4.846-12.592 7.269"/><path fill="#818181" d="M113.579 65.279c0 15.785-.005 31.57.018 47.355.001.646-.126.773-.772.772-27.294-.021-54.587-.018-81.881-.018.103-.355.456-.407.711-.556q34.848-20.262 69.706-40.508c4.065-2.36 8.145-4.697 12.218-7.045"/><path fill="#6185a2" d="M23.397 113.389c-7.399 0-14.798-.007-22.197.014-.62.002-.863-.051-.845-.792.063-2.632.024-5.266.024-7.899.36.105.576-.173.834-.323 17.861-10.385 35.723-20.77 53.573-31.174.656-.382.991-.467 1.448.301q4.308 7.231 8.73 14.392c.43.696.223.919-.368 1.254-2.586 1.468-5.151 2.974-7.723 4.468-10.961 6.37-21.924 12.741-32.88 19.124-.238.139-.708.138-.596.635M38.75 100.18c-.575-.999-1.032-1.886-1.579-2.714-.403-.61-.319-.905.33-1.275 6.262-3.573 12.501-7.184 18.756-10.771.567-.325.848-.603.364-1.249a8.6 8.6 0 0 1-1.025-1.791c-.362-.856-.756-.854-1.523-.406-6.172 3.603-12.379 7.147-18.556 10.742-.641.373-.938.346-1.273-.341-.441-.903-1.004-1.748-1.588-2.742l-6.091 10.545c4.096.002 8.044.002 12.185.002"/><path fill="#06080b" d="M23.397 113.389c-.112-.498.358-.496.596-.635C34.949 106.371 45.912 100 56.874 93.629c2.571-1.495 5.136-3 7.723-4.468.59-.335.798-.558.368-1.254q-4.422-7.16-8.73-14.392c-.458-.768-.792-.683-1.448-.301a57025 57025 0 0 1-53.573 31.174c-.258.15-.474.429-.834.323v-1.321c.307-.149.624-.279.917-.45 4.052-2.353 8.1-4.712 12.15-7.069 13.577-7.903 27.15-15.814 40.743-23.689.779-.451.794-.763.353-1.463-1.519-2.408-3.013-4.832-4.428-7.301-.439-.767-.756-.687-1.4-.312A33846 33846 0 0 1 2.51 89.994c-.694.403-1.33.926-2.131 1.133v-3.019c4.198-2.423 8.402-4.835 12.593-7.271 12.28-7.139 24.555-14.289 36.833-21.432.292-.169.558-.429.945-.348l1.169 2.272 5.828 9.605q4.367 7.228 8.736 14.455c1.179 1.949 1.201 1.976 3.178.779 1.948-1.178 4.006-2.174 5.854-3.517.754-.284 1.426-.71 2.068-1.188 1.178-.593 2.355-1.186 3.393-2.014.872-.311 1.608-.87 2.408-1.313 5.447-3.156 10.887-6.325 16.35-9.452.664-.38.4-.672.145-1.091-5.38-8.852-10.743-17.714-16.15-26.55-.502-.82-.464-1.142.407-1.645 9.725-5.616 19.421-11.282 29.125-16.935.108-.063.211-.133.317-.2v3.207c-.116.035-.244.049-.346.108-8.614 5.005-17.222 10.02-25.846 15.007-.573.331-.449.596-.191 1.016 1.536 2.503 3.095 4.994 4.563 7.537.432.747.729.749 1.419.344 6.512-3.82 13.045-7.602 19.575-11.388.258-.149.47-.425.825-.36v1.32c-6.708 3.896-13.411 7.802-20.134 11.672-.699.402-.246.715-.054 1.032 2.884 4.774 5.806 9.525 8.653 14.32.496.835.832.856 1.618.389 3.281-1.947 6.608-3.818 9.917-5.716v4.528c-4.073 2.348-8.153 4.685-12.219 7.046q-34.857 20.246-69.706 40.508c-.255.148-.608.201-.711.556z"/><path fill="#99c9ed" d="M.379 91.127c.801-.207 1.437-.729 2.131-1.133a36060 36060 0 0 0 46.205-26.888c.644-.375.961-.455 1.4.312 1.415 2.469 2.909 4.894 4.428 7.301.441.7.426 1.012-.353 1.463-13.593 7.875-27.166 15.786-40.743 23.689q-6.074 3.537-12.15 7.069c-.293.171-.611.301-.917.45z"/><path fill="#6185a2" d="M113.579 60.751c-3.31 1.898-6.636 3.769-9.917 5.716-.786.467-1.122.446-1.618-.389-2.847-4.795-5.769-9.546-8.653-14.32-.191-.317-.645-.629.054-1.032 6.723-3.87 13.425-7.776 20.134-11.672z"/><path fill="#99c9ed" d="M113.579 37.734c-.354-.065-.567.21-.825.36-6.53 3.787-13.063 7.568-19.575 11.388-.69.405-.987.403-1.419-.344-1.469-2.542-3.028-5.033-4.563-7.537-.258-.42-.381-.685.191-1.016 8.624-4.987 17.232-10.002 25.846-15.007.102-.059.23-.073.346-.108z"/><path fill="#818181" d="m51.92 61.329-1.169-2.272c1.354-1.07 2.929-1.775 4.405-2.643 1.782-1.049 3.594-2.049 5.393-3.07.668.594.971 1.448 1.517 2.129.113.223.213.453.342.667 3.612 5.988 7.239 11.967 10.836 17.963 1.465 2.443 3.029 4.828 4.342 7.36-.643.478-1.315.904-2.069 1.188-.176-.216-.381-.414-.523-.65-2.458-4.073-4.895-8.16-7.368-12.224-.658-1.081-1.157-2.271-2.077-3.182-.002-.398-.217-.713-.41-1.035-1.614-2.684-3.253-5.354-4.828-8.06-.4-.687-.724-.808-1.368-.333-.526.388-1.146.644-1.706.991-1.754 1.089-3.643 1.949-5.317 3.171"/><path fill="#89a3b9" d="M62.065 55.474c-.546-.681-.849-1.535-1.517-2.129 1.5-.915 3.023-1.792 4.489-2.758.78-.514 1.174-.426 1.667.401 3.476 5.826 7.002 11.623 10.514 17.427q2.754 4.557 5.521 9.104c.155.255.259.593.647.617-.8.444-1.536 1.003-2.408 1.314-.204-.042-.313-.192-.413-.356l-8.218-13.598c-2.238-3.704-4.49-7.399-6.701-11.119-.396-.666-.756-.687-1.342-.289-.724.494-1.491.927-2.239 1.386"/><path fill="#06080b" d="M38.75 100.18H26.564l6.091-10.545c.583.994 1.146 1.838 1.588 2.742.335.688.632.714 1.273.341 6.177-3.595 12.384-7.139 18.556-10.742.767-.448 1.162-.451 1.523.406.267.63.615 1.244 1.025 1.791.484.646.203.923-.364 1.249-6.254 3.586-12.494 7.198-18.756 10.771-.649.37-.733.665-.33 1.275.548.826 1.005 1.713 1.58 2.712"/><path fill="#89a3b9" d="M65.548 66.596c.92.911 1.419 2.102 2.077 3.182 2.474 4.064 4.91 8.15 7.368 12.224.142.236.348.434.523.65-1.849 1.343-3.907 2.338-5.854 3.517-1.978 1.197-2 1.169-3.178-.779q-4.37-7.226-8.736-14.455c.379.007.542-.202.557-.559.234.375.379.666.965.301 1.595-.989 3.256-1.871 4.903-2.773.367-.201.638-.397.497-.863.277-.18.501-.464.878-.445"/><path fill="#99c9ed" d="M62.065 55.474c.749-.459 1.515-.892 2.239-1.385.586-.398.946-.377 1.342.289 2.211 3.72 4.463 7.415 6.701 11.119l8.218 13.598c.1.165.209.314.413.356-1.038.828-2.215 1.42-3.393 2.014-1.313-2.533-2.876-4.917-4.342-7.36-3.597-5.997-7.224-11.976-10.836-17.963-.129-.215-.229-.446-.342-.668m6.748 9.82c.386-.218.766-.431 1.145-.647.545-.312.425-.68.09-1.069-.229-.268-.532-.274-.75-.075-.375.342-1.133.304-1.137.969a.854.854 0 0 0 .652.822M65.548 66.596c-.377-.019-.601.265-.877.444-.283-.134-.337-.666-.89-.332-1.741 1.052-3.525 2.033-5.297 3.033-.289.163-.483.319-.178.634-.014.357-.177.565-.557.559l-5.828-9.605c1.674-1.222 3.563-2.082 5.317-3.171.559-.347 1.18-.603 1.706-.991.644-.475.968-.354 1.368.333 1.575 2.707 3.214 5.376 4.828 8.06.191.322.406.637.408 1.036"/><path fill="#818181" d="M58.305 70.375c-.305-.315-.111-.471.178-.634 1.772-1 3.557-1.981 5.297-3.033.553-.334.607.197.89.332.141.466-.13.663-.497.863-1.647.903-3.309 1.785-4.903 2.773-.586.365-.731.074-.965-.301"/><path fill="#89a3b9" d="M68.813 65.294a.854.854 0 0 1-.652-.822c.004-.666.762-.627 1.137-.969.219-.2.521-.193.75.075.335.39.455.757-.09 1.069q-.567.322-1.145.647"/></g></svg>