<svg xmlns="http://www.w3.org/2000/svg" xml:space="preserve" width="113.39" height="113.39" viewBox="0 0 113.39 113.39"><g fill-rule="evenodd" clip-rule="evenodd"><path fill="#fff" d="M.243 88.384c0-29.059.003-58.117-.018-87.175C.224.501.384.341 1.093.341q55.818.031 111.636 0c.708 0 .872.159.869.868-.03 7.146-.019 14.293-.019 21.439-.351-.037-.575.225-.836.376-6.212 3.605-12.416 7.226-18.628 10.831-5.126 2.975-10.262 5.934-15.395 8.898-1.078.623-1.082.623-.441 1.709 3.792 6.43 7.568 12.868 11.4 19.273.462.772.402 1.116-.358 1.554a237 237 0 0 0-7.022 4.188c-.721.449-.993.277-1.389-.403a3454 3454 0 0 0-10.831-18.475c-.393-.666-.615-1.706-1.263-1.875-.663-.174-1.35.647-2.022 1.039q-32.9 19.14-65.8 38.279c-.236.139-.437.371-.751.342m58.201-77.733c.013-1.035.186-2.077-.078-3.103-.64-2.487-2.982-4.033-5.5-3.646-2.555.393-4.273 2.555-4.155 5.224.152 3.427.3 6.854.454 10.281.256 5.69.489 11.383.79 17.07.084 1.598.776 2.924 2.401 3.514 2.438.884 4.789-.823 4.918-3.592.402-8.581.782-17.165 1.17-25.748m-4.837 43.544c2.697 0 5.013-2.318 4.988-4.994-.024-2.698-2.365-5.001-5.034-4.952-2.689.049-4.924 2.288-4.942 4.951-.018 2.683 2.291 4.995 4.988 4.995"/><path fill="#818181" d="M113.579 65.527v48.168q-40.77 0-81.539-.002c-.408 0-.815-.028-1.223-.043.148-.112.287-.241.446-.334q5.7-3.32 11.405-6.632 26.813-15.573 53.626-31.143c5.759-3.343 11.523-6.676 17.285-10.014"/><path fill="#6185a2" d="M.243 106.518V91.406c.386.051.635-.234.922-.4 4.175-2.421 8.345-4.852 12.516-7.279C31.857 73.149 50.036 62.576 68.202 51.98c.711-.414 1.056-.4 1.496.368a400 400 0 0 0 5.547 9.392c.435.715.341 1.03-.37 1.444C52.68 76.077 30.498 88.993 8.31 101.899c-2.678 1.558-5.378 3.08-8.067 4.619m50.409-41.049c-1.17 2.005-2.313 3.959-3.449 5.917-.228.394-.087.567.361.566 2.251-.007 4.502-.004 6.919-.004-.353-.612-.608-1.104-.909-1.566-.32-.491-.278-.764.287-1.083 3.637-2.053 7.249-4.148 10.868-6.233 1.375-.791 1.337-.774.544-2.215-.317-.577-.506-.654-1.101-.303-3.354 1.982-6.742 3.91-10.123 5.847-.645.37-1.345 1.026-1.96.964-.68-.069-.783-1.156-1.241-1.73-.019-.025-.048-.041-.196-.16"/><path fill="#99c9ed" d="M113.579 52.871v8.123c-.394.039-.675.312-.995.497a322254 322254 0 0 0-80.32 46.676c-3.127 1.818-6.305 3.552-9.352 5.508l-13.84-.029c.306-.211.599-.445.919-.632q40.623-23.643 81.25-47.276a5985 5985 0 0 1 17.371-10.071c1.645-.95 3.218-2.029 4.967-2.796"/><path fill="#211a1b" d="M113.579 52.871c-1.749.767-3.322 1.846-4.967 2.795a6225 6225 0 0 0-17.371 10.071 505200 505200 0 0 0-81.25 47.276c-.32.187-.613.421-.919.632a14 14 0 0 1-2.629.007c1.262-.753 2.518-1.519 3.789-2.258 23.137-13.457 46.273-26.913 69.42-40.353.583-.339.755-.565.354-1.197-.971-1.536-1.859-3.125-2.784-4.689-.829-1.403-.834-1.407-2.286-.563L.243 108.028v-1.511c2.689-1.539 5.389-3.061 8.067-4.618 22.188-12.906 44.37-25.822 66.565-38.717.711-.414.805-.729.37-1.444a396 396 0 0 1-5.547-9.392c-.439-.769-.785-.782-1.496-.368-18.166 10.596-36.345 21.169-54.521 31.748-4.171 2.427-8.341 4.858-12.516 7.279-.288.166-.536.451-.922.4v-3.021c.314.029.516-.203.752-.34 21.935-12.758 43.866-25.521 65.8-38.279.672-.392 1.359-1.213 2.022-1.039.648.169.871 1.209 1.263 1.875 3.624 6.15 7.245 12.303 10.831 18.475.396.681.667.853 1.389.403a235 235 0 0 1 7.022-4.188c.76-.438.82-.781.358-1.554-3.832-6.405-7.608-12.844-11.4-19.273-.641-1.086-.637-1.086.441-1.709 5.132-2.965 10.268-5.924 15.395-8.898 6.213-3.605 12.416-7.226 18.628-10.831.261-.151.486-.413.836-.376v3.022c-.117.04-.244.063-.349.124-10.862 6.316-21.719 12.641-32.592 18.938-.6.348-.385.609-.154 1.002q2.743 4.633 5.468 9.277c.741 1.264.728 1.267 2.003.525q12.391-7.21 24.787-14.411c.26-.151.482-.418.838-.345v1.322c-8.503 4.946-17.002 9.897-25.516 14.825-.573.332-.738.548-.345 1.177a92 92 0 0 1 3.08 5.263c.4.745.724.762 1.395.366 4.426-2.61 8.869-5.192 13.316-7.767 2.681-1.552 5.378-3.073 8.069-4.608z"/><path fill="#e64820" d="m.243 108.028 74.693-43.436c1.452-.844 1.457-.84 2.286.563.925 1.564 1.813 3.153 2.784 4.689.4.632.229.858-.354 1.197-23.146 13.439-46.283 26.896-69.42 40.353-1.271.739-2.526 1.505-3.789 2.258l-6.2.043zm27.407-8.883c2.874.022 2.624.147 2.629-2.646.006-2.852.167-2.626-2.649-2.629s-2.627-.185-2.63 2.65c-.003 2.876-.139 2.63 2.65 2.625m18.115-11.572c0-.534-.014-1.069.003-1.604.023-.726-.319-1.027-1.034-.993-.565.027-1.132-.002-1.698.007-2.544.043-2.504-.488-2.496 2.463.009 3.191-.165 2.659 2.659 2.671 2.909.014 2.543.362 2.566-2.544m-33.622 15.32c-.504 0-1.009.027-1.511-.007-.795-.054-1.167.263-1.141 1.085.031 1.006.019 2.015.004 3.021-.011.761.333 1.075 1.097 1.049a47 47 0 0 1 3.116 0c.729.023 1.05-.311 1.054-1.001.007-1.038.001-2.077.002-3.116.001-.744-.344-1.093-1.11-1.037-.502.035-1.008.007-1.511.006m59.496-33.28c0 .564.022 1.129-.006 1.691-.034.686.31.987.948.994 1.097.013 2.194.02 3.291-.005.574-.013.938-.284.913-.935-.022-.563.002-1.128-.004-1.692-.034-2.877.408-2.62-2.583-2.63-2.975-.008-2.531-.152-2.559 2.577m-10.377 9.034c0-.565-.021-1.132.005-1.695.029-.646-.27-.92-.895-.916-1.099.007-2.198.01-3.297-.003-.658-.009-.982.248-.958.95.033.972.005 1.946.009 2.92.004 1.257.05 1.299 1.353 1.302q.612.002 1.225-.001c2.913-.016 2.536.318 2.558-2.557m-41.61 21.085c.518 1.212.942 2.244 1.403 3.26.167.367.4.788.921.535.478-.23.403-.615.218-1.041-.614-1.405-1.196-2.824-1.801-4.233-.149-.346-.323-.729-.781-.702-.397.022-.548.355-.688.688-.568 1.356-1.154 2.705-1.724 4.062-.182.433-.446.976.134 1.231.667.295.823-.36 1.02-.797.418-.928.81-1.87 1.298-3.003m33.673-14.823a.5.5 0 0 0-.03-.179c-.662-1.55-1.294-3.113-2.01-4.639-.293-.625-.906-.596-1.203.049-.693 1.501-1.329 3.03-1.971 4.554-.157.372-.16.792.259.979.429.191.706-.102.873-.482.351-.8.692-1.604 1.046-2.404.096-.217.105-.579.371-.585.331-.009.348.375.456.619.367.827.722 1.66 1.101 2.482.142.309.392.512.756.391.317-.105.383-.381.352-.785M66.22 72.891c.498 1.167.899 2.114 1.307 3.06.189.44.401.973.996.721.596-.252.345-.771.161-1.204-.563-1.322-1.135-2.641-1.694-3.965-.161-.38-.289-.832-.786-.813-.478.019-.621.474-.781.844a407 407 0 0 0-1.688 3.968c-.179.426-.474.931.191 1.177.631.234.784-.309.971-.742.404-.942.814-1.88 1.323-3.046M35.176 90.795c.52 1.213.941 2.206 1.371 3.196.188.434.467.829.993.56.471-.242.313-.679.145-1.074-.602-1.409-1.191-2.825-1.8-4.232-.134-.309-.271-.66-.708-.661-.432-.001-.58.338-.715.65a429 429 0 0 0-1.756 4.149c-.184.438-.426.965.197 1.196.615.229.772-.332.959-.769.399-.933.81-1.862 1.314-3.015M4.132 108.68c.518 1.199.957 2.232 1.412 3.259.171.385.401.787.909.546.461-.218.425-.602.231-1.039-.622-1.4-1.207-2.817-1.813-4.225-.147-.341-.264-.736-.762-.699-.41.031-.563.33-.704.662-.6 1.41-1.211 2.815-1.818 4.223-.19.44-.276.907.274 1.104.494.177.712-.236.882-.629.433-1.003.869-2.005 1.389-3.202"/><path fill="#6185a2" d="M113.579 40.782c-.356-.073-.578.193-.838.345q-12.396 7.201-24.787 14.411c-1.275.741-1.262.738-2.003-.525q-2.725-4.645-5.468-9.277c-.231-.393-.446-.654.154-1.002 10.873-6.298 21.73-12.622 32.592-18.938.105-.062.232-.084.349-.124z"/><path fill="#211a1b" d="M22.913 113.675c3.046-1.956 6.224-3.689 9.352-5.508q40.157-23.343 80.32-46.676c.32-.186.601-.458.995-.497v4.533c-5.762 3.338-11.526 6.671-17.285 10.014q-26.813 15.57-53.625 31.144a9951 9951 0 0 0-11.405 6.632c-.16.093-.298.222-.446.334q-3.955.011-7.906.024"/><path fill="#e64820" d="M113.579 51.36c-2.69 1.535-5.388 3.057-8.069 4.608-4.447 2.574-8.89 5.156-13.316 7.767-.671.396-.995.379-1.395-.366a92 92 0 0 0-3.08-5.263c-.393-.629-.229-.845.345-1.177 8.514-4.928 17.013-9.879 25.516-14.825zm-4.437.567c2.883-.013 2.727.345 2.724-2.65-.001-2.784.18-2.591-2.603-2.594-2.983-.003-2.659-.157-2.674 2.708-.016 2.808-.128 2.537 2.553 2.536m-15.436 3.767c-.535 0-1.071.024-1.604-.006-.736-.041-1.021.3-1.007 1.011a73 73 0 0 1 0 3.113c-.016.708.257 1.044.997 1.023a49 49 0 0 1 3.207.002c.75.028 1.022-.333 1.022-1.014 0-1.038-.004-2.076.001-3.113.004-.752-.342-1.086-1.108-1.024-.499.042-1.005.008-1.508.008m7.528-3.167c.534 1.258.969 2.326 1.445 3.375.154.34.411.705.875.449.375-.207.459-.524.265-.96a212 212 0 0 1-1.926-4.486c-.137-.325-.327-.524-.693-.521-.38.004-.534.259-.664.565-.612 1.44-1.238 2.874-1.848 4.315-.182.43-.278.911.274 1.117.512.19.705-.253.871-.631.44-.999.872-2.003 1.401-3.223"/><path fill="#211a1b" d="M58.444 10.651c-.388 8.583-.768 17.167-1.169 25.749-.13 2.769-2.48 4.476-4.918 3.592-1.625-.59-2.317-1.916-2.401-3.514-.301-5.688-.534-11.38-.79-17.07-.154-3.427-.302-6.854-.454-10.281-.118-2.669 1.601-4.831 4.155-5.224 2.518-.388 4.86 1.158 5.5 3.646.263 1.025.09 2.067.077 3.102m-.569-.2c0-.851.051-1.484-.009-2.107-.174-1.788-1.116-3.049-2.806-3.652-2.975-1.064-5.84 1.098-5.729 4.355.137 4.022.368 8.042.542 12.063.154 3.551.245 7.104.448 10.651.104 1.817.005 3.655.36 5.451.353 1.783 2.034 2.762 3.784 2.273 1.374-.385 2.188-1.63 2.253-3.431.078-2.17.146-4.339.247-6.507.299-6.438.612-12.877.91-19.096M53.607 54.195c-2.697 0-5.006-2.313-4.988-4.995.018-2.663 2.253-4.902 4.942-4.951 2.668-.049 5.009 2.254 5.034 4.952.025 2.676-2.29 4.994-4.988 4.994m.066-9.3c-2.44-.024-4.371 1.824-4.454 4.264-.079 2.297 1.957 4.396 4.323 4.46 2.3.061 4.423-2.001 4.459-4.331.037-2.383-1.921-4.369-4.328-4.393M50.652 65.469c.148.119.177.136.196.159.458.574.561 1.661 1.241 1.73.615.063 1.315-.594 1.96-.964 3.381-1.937 6.768-3.864 10.123-5.847.595-.352.784-.274 1.101.303.793 1.44.831 1.424-.544 2.215-3.619 2.085-7.231 4.181-10.868 6.233-.565.319-.607.592-.287 1.083.301.462.557.954.909 1.566-2.417 0-4.668-.003-6.919.004-.448.001-.589-.173-.361-.566 1.136-1.957 2.279-3.911 3.449-5.916M27.65 99.145c-2.789.006-2.653.251-2.65-2.625.003-2.835-.185-2.653 2.63-2.65s2.655-.223 2.649 2.629c-.006 2.793.244 2.668-2.629 2.646m1.304-2.565c0-1.396 0-1.396-1.083-1.396-1.561-.001-1.561-.001-1.562 1.106-.001 1.537-.001 1.537 1.13 1.538 1.515.001 1.515.001 1.515-1.248M45.765 87.573c-.023 2.905.343 2.558-2.565 2.544-2.824-.012-2.649.521-2.659-2.671-.009-2.951-.049-2.42 2.496-2.463.566-.009 1.133.021 1.698-.007.715-.034 1.057.268 1.034.993-.018.535-.004 1.07-.004 1.604m-1.275.013c-.021-1.521.209-1.394-1.21-1.396-1.714-.003-1.479-.105-1.475 1.227.005 1.733-.228 1.509 1.256 1.523 1.429.014 1.429.003 1.429-1.354M12.143 102.893c.503.001 1.009.029 1.51-.006.766-.056 1.111.293 1.11 1.037-.001 1.039.005 2.078-.002 3.116-.004.69-.326 1.024-1.054 1.001a47 47 0 0 0-3.116 0c-.763.026-1.108-.288-1.097-1.049a66 66 0 0 0-.004-3.021c-.025-.822.346-1.139 1.141-1.085.503.034 1.008.007 1.512.007m1.322 2.601c-.023-1.613.202-1.401-1.169-1.415-1.485-.015-1.485-.005-1.485 1.188-.001 1.568-.001 1.576 1.399 1.566 1.479-.009 1.231.152 1.255-1.339M71.638 69.613c.028-2.729-.415-2.585 2.558-2.576 2.991.01 2.55-.247 2.583 2.63.006.564-.018 1.129.004 1.692.026.65-.338.922-.913.935a98 98 0 0 1-3.291.005c-.638-.007-.982-.309-.948-.994.03-.563.008-1.127.007-1.692m2.634 1.393c1.51-.024 1.31.2 1.322-1.271.012-1.384.003-1.384-1.198-1.384-1.567-.001-1.567-.001-1.567 1.215.001 1.44.001 1.44 1.443 1.44M61.262 78.647c-.022 2.875.355 2.541-2.559 2.557q-.612.003-1.225.001c-1.302-.003-1.348-.045-1.353-1.302-.003-.974.024-1.948-.009-2.92-.023-.702.301-.959.958-.95 1.099.013 2.198.01 3.297.003.625-.004.924.271.895.916-.024.564-.004 1.13-.004 1.695m-2.589 1.287c.725.009 1.522.273 1.432-1.022-.126-1.807.17-1.674-1.17-1.666-1.801.01-1.613-.236-1.625 1.169-.013 1.523-.004 1.523 1.363 1.519M19.652 99.732c-.488 1.133-.88 2.074-1.299 3.003-.197.437-.352 1.092-1.02.797-.58-.256-.316-.799-.134-1.231.57-1.356 1.156-2.705 1.724-4.062.14-.333.291-.666.688-.688.458-.026.632.356.781.702.605 1.409 1.187 2.828 1.801 4.233.186.426.26.811-.218 1.041-.521.253-.754-.168-.921-.535-.46-1.015-.884-2.048-1.402-3.26M53.325 84.909c.031.403-.035.68-.354.785-.364.121-.614-.082-.756-.391-.378-.822-.734-1.655-1.101-2.482-.108-.244-.125-.628-.456-.619-.265.006-.275.368-.371.585-.354.8-.695 1.604-1.046 2.404-.167.381-.444.674-.873.482-.419-.188-.417-.607-.259-.979.643-1.523 1.278-3.053 1.971-4.554.297-.645.91-.674 1.203-.049.716 1.525 1.349 3.089 2.01 4.639a.4.4 0 0 1 .032.179M66.22 72.891c-.508 1.166-.918 2.104-1.324 3.044-.188.434-.34.977-.971.742-.666-.246-.37-.751-.191-1.177a445 445 0 0 1 1.688-3.968c.16-.37.303-.825.781-.844.497-.019.625.434.786.813.56 1.324 1.132 2.643 1.694 3.965.184.433.436.952-.161 1.204-.594.252-.807-.28-.996-.721-.407-.944-.808-1.891-1.306-3.058M35.176 90.795c-.504 1.153-.915 2.082-1.314 3.016-.187.437-.344.997-.959.769-.623-.231-.381-.758-.197-1.196.58-1.386 1.162-2.77 1.756-4.149.135-.313.283-.651.715-.65.437.001.574.353.708.661.609 1.407 1.198 2.823 1.8 4.232.168.396.327.832-.145 1.074-.526.27-.805-.126-.993-.56-.43-.991-.852-1.984-1.371-3.197M4.132 108.68c-.52 1.197-.956 2.199-1.388 3.202-.169.393-.388.806-.882.629-.55-.197-.464-.664-.274-1.104.607-1.407 1.218-2.813 1.818-4.223.141-.332.294-.631.704-.662.498-.037.615.358.762.699.606 1.407 1.19 2.824 1.813 4.225.194.438.229.821-.231 1.039-.508.241-.738-.161-.909-.546-.456-1.027-.895-2.06-1.413-3.259M109.142 51.927c-2.68.001-2.568.272-2.553-2.536.015-2.865-.309-2.711 2.674-2.708 2.783.003 2.602-.19 2.603 2.594.002 2.994.158 2.637-2.724 2.65m.106-3.967c-1.341 0-1.341 0-1.342 1.127-.001 1.54-.001 1.54 1.123 1.541 1.528.001 1.528.001 1.528-1.229 0-1.439 0-1.439-1.309-1.439M93.706 55.694c.503 0 1.009.033 1.509-.008.766-.062 1.112.272 1.108 1.024-.005 1.037-.001 2.075-.001 3.113 0 .681-.272 1.042-1.022 1.014a49 49 0 0 0-3.207-.002c-.74.021-1.013-.315-.997-1.023a72 72 0 0 0 0-3.113c-.015-.711.271-1.052 1.007-1.011.532.031 1.068.006 1.603.006m1.361 2.613c-.021-1.505.223-1.438-1.086-1.43-1.791.012-1.591-.229-1.59 1.199.001 1.796-.216 1.564 1.217 1.566 1.672.003 1.435.207 1.459-1.335M101.234 52.527c-.529 1.22-.961 2.224-1.401 3.225-.166.378-.359.821-.871.631-.552-.206-.456-.688-.274-1.117.61-1.441 1.235-2.875 1.848-4.315.13-.307.284-.562.664-.565.366-.004.556.195.693.521.63 1.501 1.262 3.001 1.926 4.486.195.436.11.753-.265.96-.464.256-.72-.109-.875-.449-.476-1.05-.91-2.119-1.445-3.377"/><path fill="#e64820" d="M57.875 10.451c-.297 6.219-.611 12.658-.91 19.098-.101 2.168-.168 4.337-.247 6.507-.065 1.801-.879 3.046-2.253 3.431-1.75.488-3.431-.49-3.784-2.273-.355-1.796-.256-3.634-.36-5.451-.204-3.547-.294-7.101-.448-10.651-.175-4.021-.405-8.041-.542-12.063-.111-3.258 2.754-5.42 5.729-4.355 1.69.604 2.632 1.864 2.806 3.652.06.621.009 1.255.009 2.105M53.673 44.895c2.407.024 4.365 2.011 4.328 4.393-.036 2.33-2.159 4.392-4.459 4.331-2.366-.063-4.401-2.163-4.323-4.46.083-2.44 2.013-4.289 4.454-4.264M28.954 96.58c0 1.249 0 1.249-1.515 1.248-1.131-.001-1.131-.001-1.13-1.538 0-1.107 0-1.107 1.562-1.106 1.084.001 1.084.001 1.083 1.396M44.49 87.586c0 1.357 0 1.368-1.429 1.354-1.484-.015-1.251.21-1.256-1.523-.004-1.332-.239-1.229 1.475-1.227 1.419.002 1.189-.126 1.21 1.396M13.465 105.494c-.024 1.491.224 1.33-1.255 1.339-1.4.01-1.4.002-1.399-1.566 0-1.192 0-1.202 1.485-1.188 1.371.014 1.146-.198 1.169 1.415M74.272 71.006c-1.443 0-1.443 0-1.443-1.439 0-1.216 0-1.216 1.567-1.215 1.201 0 1.21 0 1.198 1.384-.012 1.47.189 1.245-1.322 1.27M58.673 79.934c-1.367.005-1.376.005-1.363-1.52.012-1.405-.176-1.159 1.625-1.169 1.34-.008 1.044-.141 1.17 1.666.091 1.296-.707 1.031-1.432 1.023M109.248 47.96c1.31 0 1.31 0 1.309 1.439 0 1.229 0 1.229-1.528 1.229-1.124-.001-1.124-.001-1.123-1.541.001-1.127.001-1.127 1.342-1.127M95.067 58.307c-.024 1.542.212 1.338-1.459 1.336-1.433-.002-1.216.229-1.217-1.566-.001-1.429-.2-1.188 1.59-1.199 1.309-.009 1.065-.076 1.086 1.429"/></g></svg>